  0
SECTION
  2
HEADER
  9
$ACADVER
  1
AC1009
  9
$INSBASE
 10
0.0
 20
0.0
 30
0.0
  9
$EXTMIN
 10
-4.0
 20
-5.25
 30
0.0
  9
$EXTMAX
 10
4.0
 20
5.25
 30
0.0
  9
$LIMMIN
 10
0.0
 20
0.0
  9
$LIMMAX
 10
0.0
 20
0.0
  9
$ORTHOMODE
 70
     0
  9
$REGENMODE
 70
     1
  9
$FILLMODE
 70
     1
  9
$QTEXTMODE
 70
     0
  9
$MIRRTEXT
 70
     1
  9
$DRAGMODE
 70
     2
  9
$LTSCALE
 40
1.0
  9
$OSMODE
 70
     0
  9
$ATTMODE
 70
     1
  9
$TEXTSIZE
 40
0.2
  9
$TRACEWID
 40
0.05
  9
$TEXTSTYLE
  7
STANDARD
  9
$CLAYER
  8
0
  9
$CELTYPE
  6
CONTINUOUS
  9
$CECOLOR
 62
   256
  9
$DIMSCALE
 40
1.0
  9
$DIMASZ
 40
0.18
  9
$DIMEXO
 40
0.0625
  9
$DIMDLI
 40
0.38
  9
$DIMRND
 40
0.0
  9
$DIMDLE
 40
0.0
  9
$DIMEXE
 40
0.18
  9
$DIMTP
 40
0.0
  9
$DIMTM
 40
0.0
  9
$DIMTXT
 40
0.18
  9
$DIMCEN
 40
0.09
  9
$DIMTSZ
 40
0.0
  9
$DIMTOL
 70
     0
  9
$DIMLIM
 70
     0
  9
$DIMTIH
 70
     1
  9
$DIMTOH
 70
     1
  9
$DIMSE1
 70
     0
  9
$DIMSE2
 70
     0
  9
$DIMTAD
 70
     0
  9
$DIMZIN
 70
     0
  9
$DIMBLK
  1

  9
$DIMASO
 70
     1
  9
$DIMSHO
 70
     1
  9
$DIMPOST
  1

  9
$DIMAPOST
  1

  9
$DIMALT
 70
     0
  9
$DIMALTD
 70
     2
  9
$DIMALTF
 40
25.4
  9
$DIMLFAC
 40
1.0
  9
$DIMTOFL
 70
     0
  9
$DIMTVP
 40
0.0
  9
$DIMTIX
 70
     0
  9
$DIMSOXD
 70
     0
  9
$DIMSAH
 70
     0
  9
$DIMBLK1
  1

  9
$DIMBLK2
  1

  9
$DIMSTYLE
  2
STANDARD
  9
$DIMCLRD
 70
     0
  9
$DIMCLRE
 70
     0
  9
$DIMCLRT
 70
     0
  9
$DIMTFAC
 40
1.0
  9
$DIMGAP
 40
0.09
  9
$LUNITS
 70
     3
  9
$LUPREC
 70
     4
  9
$AXISMODE
 70
     0
  9
$AXISUNIT
 10
0.0
 20
0.0
  9
$SKETCHINC
 40
0.1
  9
$FILLETRAD
 40
0.0
  9
$AUNITS
 70
     0
  9
$AUPREC
 70
     0
  9
$MENU
  1
acad
  9
$ELEVATION
 40
0.0
  9
$PELEVATION
 40
0.0
  9
$THICKNESS
 40
0.0
  9
$LIMCHECK
 70
     0
  9
$BLIPMODE
 70
     1
  9
$CHAMFERA
 40
0.0
  9
$CHAMFERB
 40
0.0
  9
$SKPOLY
 70
     0
  9
$TDCREATE
 40
2453131.678854167
  9
$TDUPDATE
 40
2453131.678854167
  9
$TDINDWG
 40
0.0000000000
  9
$TDUSRTIMER
 40
0.0000000000
  9
$USRTIMER
 70
     1
  9
$ANGBASE
 50
0.0
  9
$ANGDIR
 70
     0
  9
$PDMODE
 70
     0
  9
$PDSIZE
 40
0.0
  9
$PLINEWID
 40
0.0
  9
$COORDS
 70
     0
  9
$SPLFRAME
 70
     0
  9
$SPLINETYPE
 70
     6
  9
$SPLINESEGS
 70
     8
  9
$ATTDIA
 70
     0
  9
$ATTREQ
 70
     1
  9
$HANDLING
 70
     1
  9
$HANDSEED
  5
1C3
  9
$SURFTAB1
 70
     6
  9
$SURFTAB2
 70
     6
  9
$SURFTYPE
 70
     6
  9
$SURFU
 70
     6
  9
$SURFV
 70
     6
  9
$UCSNAME
  2

  9
$UCSORG
 10
0.0
 20
0.0
 30
0.0
  9
$UCSXDIR
 10
1.0
 20
0.0
 30
0.0
  9
$UCSYDIR
 10
0.0
 20
1.0
 30
0.0
  9
$PUCSNAME
  2

  9
$PUCSORG
 10
0.0
 20
0.0
 30
0.0
  9
$PUCSXDIR
 10
1.0
 20
0.0
 30
0.0
  9
$PUCSYDIR
 10
0.0
 20
1.0
 30
0.0
  9
$USERI1
 70
     0
  9
$USERI2
 70
     0
  9
$USERI3
 70
     0
  9
$USERI4
 70
     0
  9
$USERI5
 70
     0
  9
$USERR1
 40
0.0
  9
$USERR2
 40
0.0
  9
$USERR3
 40
0.0
  9
$USERR4
 40
0.0
  9
$USERR5
 40
0.0
  9
$WORLDVIEW
 70
     1
  9
$SHADEDGE
 70
     3
  9
$SHADEDIF
 70
    70
  9
$TILEMODE
 70
     1
  9
$MAXACTVP
 70
    16
  9
$PINSBASE
 10
0.0
 20
0.0
 30
0.0
  9
$PLIMCHECK
 70
     0
  9
$PEXTMIN
 10
1.000000E+20
 20
1.000000E+20
 30
1.000000E+20
  9
$PEXTMAX
 10
-1.000000E+20
 20
-1.000000E+20
 30
-1.000000E+20
  9
$PLIMMIN
 10
0.0
 20
0.0
  9
$PLIMMAX
 10
12.0
 20
9.0
  9
$UNITMODE
 70
     0
  9
$VISRETAIN
 70
     0
  9
$PLINEGEN
 70
     1
  9
$PSLTSCALE
 70
     0
  9
$TREEDEPTH
 70
  3020
  9
$DWGCODEPAGE
  3
dos850
  0
ENDSEC
  0
SECTION
  2
TABLES
  0
TABLE
  2
VPORT
 70
     1
  0
VPORT
  2
*ACTIVE
 70
     0
 10
0.0
 20
0.0
 11
1.0
 21
1.0
 12
0.0
 22
0.0
 13
0.0
 23
0.0
 14
1.0
 24
1.0
 15
0.0
 25
0.0
 16
0.0
 26
0.0
 36
1.0
 17
0.0
 27
0.0
 37
0.0
 40
10.0
 41
0.688564
 42
50.0
 43
0.0
 44
0.0
 50
0.0
 51
0.0
 71
     0
 72
   100
 73
     1
 74
     1
 75
     0
 76
     0
 77
     0
 78
     0
  0
ENDTAB
  0
TABLE
  2
LTYPE
 70
    11
  0
LTYPE
  2
CONTINUOUS
 70
     0
  3
Solid line
 72
    65
 73
     0
 40
0.0
  0
LTYPE
  2
MCDASH01
 70
     0
  3

 72
    65
 73
     2
 40
0.083328
 49
0.041656
 49
-0.041672
  0
LTYPE
  2
MCDASH02
 70
     0
  3

 72
    65
 73
     2
 40
0.138885
 49
0.097214
 49
-0.041672
  0
LTYPE
  2
MCDASH03
 70
     0
  3

 72
    65
 73
     2
 40
0.25
 49
0.208328
 49
-0.041672
  0
LTYPE
  2
MCDASH04
 70
     0
  3

 72
    65
 73
     2
 40
0.305542
 49
0.263885
 49
-0.041656
  0
LTYPE
  2
MCDASH05
 70
     0
  3

 72
    65
 73
     2
 40
0.041656
 49
0.013885
 49
-0.027771
  0
LTYPE
  2
MCDASH06
 70
     0
  3

 72
    65
 73
     4
 40
0.208328
 49
0.125
 49
-0.041656
 49
0.013885
 49
-0.027786
  0
LTYPE
  2
MCDASH07
 70
     0
  3

 72
    65
 73
     6
 40
0.375
 49
0.125
 49
-0.041656
 49
0.125
 49
-0.041672
 49
0.013885
 49
-0.027786
  0
LTYPE
  2
MCDASH08
 70
     0
  3

 72
    65
 73
     6
 40
0.25
 49
0.125
 49
-0.041656
 49
0.013885
 49
-0.027786
 49
0.013885
 49
-0.027786
  0
LTYPE
  2
MCDASH09
 70
     0
  3

 72
    65
 73
     4
 40
1.0
 49
0.75
 49
-0.055557
 49
0.138885
 49
-0.055557
  0
LTYPE
  2
MCDASH10
 70
     0
  3

 72
    65
 73
     6
 40
1.1875
 49
0.75
 49
-0.055557
 49
0.138885
 49
-0.055557
 49
0.125
 49
-0.0625
  0
ENDTAB
  0
TABLE
  2
LAYER
 70
     2
  0
LAYER
  2
0
 70
     0
 62
     7
  6
CONTINUOUS
  0
LAYER
  2
LAYER-2
 70
    64
 62
     7
  6
CONTINUOUS
  0
ENDTAB
  0
TABLE
  2
STYLE
 70
     1
  0
STYLE
  2
STANDARD
 70
     0
 40
0.0
 41
1.0
 50
0.0
 71
     0
 42
0.0
  3
txt
  4

  0
ENDTAB
  0
TABLE
  2
VIEW
 70
     0
  0
ENDTAB
  0
TABLE
  2
UCS
 70
     0
  0
ENDTAB
  0
TABLE
  2
APPID
 70
     1
  0
APPID
  2
ACAD
 70
     0
  0
ENDTAB
  0
TABLE
  2
DIMSTYLE
 70
     1
  0
DIMSTYLE
  2
STANDARD
 70
     0
  3

  4

  5

  6

  7

 40
1.0
 41
0.18
 42
0.0625
 43
0.38
 44
0.18
 45
0.0
 46
0.0
 47
0.0
 48
0.0
140
0.18
141
0.09
142
0.0
143
25.4
144
1.0
145
0.0
146
1.0
147
0.09
 71
     0
 72
     0
 73
     1
 74
     1
 75
     0
 76
     0
 77
     0
 78
     0
170
     0
171
     2
172
     0
173
     0
174
     0
175
     0
176
     0
177
     0
178
     0
  0
ENDTAB
  0
ENDSEC
  0
SECTION
  2
BLOCKS
  0
ENDSEC
  0
SECTION
  2
ENTITIES
  0
LINE
  8
LAYER-2
  6
CONTINUOUS
 62
     7
  5
2B
 10
-4.0
 20
-3.5
 30
0.0
 11
-3.5
 21
-3.5
 31
0.0
  0
LINE
  8
LAYER-2
  6
CONTINUOUS
 62
     7
  5
2C
 10
-3.5
 20
-3.5
 30
0.0
 11
-3.0
 21
-3.5
 31
0.0
  0
LINE
  8
LAYER-2
  6
CONTINUOUS
 62
     7
  5
2D
 10
-3.0
 20
-3.5
 30
0.0
 11
-2.5
 21
-3.5
 31
0.0
  0
LINE
  8
LAYER-2
  6
CONTINUOUS
 62
     7
  5
2E
 10
-2.5
 20
-3.5
 30
0.0
 11
-2.0
 21
-3.5
 31
0.0
  0
LINE
  8
LAYER-2
  6
CONTINUOUS
 62
     7
  5
2F
 10
-2.0
 20
-3.5
 30
0.0
 11
-1.5
 21
-3.5
 31
0.0
  0
LINE
  8
LAYER-2
  6
CONTINUOUS
 62
     7
  5
30
 10
-1.5
 20
-3.5
 30
0.0
 11
-1.0
 21
-3.5
 31
0.0
  0
LINE
  8
LAYER-2
  6
CONTINUOUS
 62
     7
  5
31
 10
-1.0
 20
-3.5
 30
0.0
 11
-0.5
 21
-3.5
 31
0.0
  0
LINE
  8
LAYER-2
  6
CONTINUOUS
 62
     7
  5
32
 10
-0.5
 20
-3.5
 30
0.0
 11
0.0
 21
-3.5
 31
0.0
  0
LINE
  8
LAYER-2
  6
CONTINUOUS
 62
     7
  5
33
 10
0.0
 20
-3.5
 30
0.0
 11
0.5
 21
-3.5
 31
0.0
  0
LINE
  8
LAYER-2
  6
CONTINUOUS
 62
     7
  5
34
 10
0.5
 20
-3.5
 30
0.0
 11
1.0
 21
-3.5
 31
0.0
  0
LINE
  8
LAYER-2
  6
CONTINUOUS
 62
     7
  5
35
 10
1.0
 20
-3.5
 30
0.0
 11
1.5
 21
-3.5
 31
0.0
  0
LINE
  8
LAYER-2
  6
CONTINUOUS
 62
     7
  5
36
 10
1.5
 20
-3.5
 30
0.0
 11
2.0
 21
-3.5
 31
0.0
  0
LINE
  8
LAYER-2
  6
CONTINUOUS
 62
     7
  5
37
 10
2.0
 20
-3.5
 30
0.0
 11
2.5
 21
-3.5
 31
0.0
  0
LINE
  8
LAYER-2
  6
CONTINUOUS
 62
     7
  5
38
 10
2.5
 20
-3.5
 30
0.0
 11
3.0
 21
-3.5
 31
0.0
  0
LINE
  8
LAYER-2
  6
CONTINUOUS
 62
     7
  5
39
 10
3.0
 20
-3.5
 30
0.0
 11
3.5
 21
-3.5
 31
0.0
  0
LINE
  8
LAYER-2
  6
CONTINUOUS
 62
     7
  5
3A
 10
3.5
 20
-3.5
 30
0.0
 11
4.0
 21
-3.5
 31
0.0
  0
LINE
  8
LAYER-2
  6
CONTINUOUS
 62
     7
  5
3B
 10
3.5
 20
-3.5
 30
0.0
 11
3.25
 21
-3.066988
 31
0.0
  0
LINE
  8
LAYER-2
  6
CONTINUOUS
 62
     7
  5
3C
 10
3.25
 20
-3.066988
 30
0.0
 11
3.0
 21
-3.5
 31
0.0
  0
LINE
  8
LAYER-2
  6
CONTINUOUS
 62
     7
  5
3D
 10
3.0
 20
-3.5
 30
0.0
 11
2.75
 21
-3.066988
 31
0.0
  0
LINE
  8
LAYER-2
  6
CONTINUOUS
 62
     7
  5
3E
 10
2.75
 20
-3.066988
 30
0.0
 11
2.5
 21
-3.5
 31
0.0
  0
LINE
  8
LAYER-2
  6
CONTINUOUS
 62
     7
  5
3F
 10
2.5
 20
-3.5
 30
0.0
 11
2.25
 21
-3.066988
 31
0.0
  0
LINE
  8
LAYER-2
  6
CONTINUOUS
 62
     7
  5
40
 10
2.25
 20
-3.066988
 30
0.0
 11
2.0
 21
-3.5
 31
0.0
  0
LINE
  8
LAYER-2
  6
CONTINUOUS
 62
     7
  5
41
 10
2.0
 20
-3.5
 30
0.0
 11
1.75
 21
-3.066988
 31
0.0
  0
LINE
  8
LAYER-2
  6
CONTINUOUS
 62
     7
  5
42
 10
1.75
 20
-3.066988
 30
0.0
 11
1.5
 21
-3.5
 31
0.0
  0
LINE
  8
LAYER-2
  6
CONTINUOUS
 62
     7
  5
43
 10
1.5
 20
-3.5
 30
0.0
 11
1.25
 21
-3.066988
 31
0.0
  0
LINE
  8
LAYER-2
  6
CONTINUOUS
 62
     7
  5
44
 10
1.25
 20
-3.066988
 30
0.0
 11
1.0
 21
-3.5
 31
0.0
  0
LINE
  8
LAYER-2
  6
CONTINUOUS
 62
     7
  5
45
 10
1.0
 20
-3.5
 30
0.0
 11
0.75
 21
-3.066988
 31
0.0
  0
LINE
  8
LAYER-2
  6
CONTINUOUS
 62
     7
  5
46
 10
0.75
 20
-3.066988
 30
0.0
 11
0.5
 21
-3.5
 31
0.0
  0
LINE
  8
LAYER-2
  6
CONTINUOUS
 62
     7
  5
47
 10
0.5
 20
-3.5
 30
0.0
 11
0.25
 21
-3.066988
 31
0.0
  0
LINE
  8
LAYER-2
  6
CONTINUOUS
 62
     7
  5
48
 10
0.25
 20
-3.066988
 30
0.0
 11
0.0
 21
-3.5
 31
0.0
  0
LINE
  8
LAYER-2
  6
CONTINUOUS
 62
     7
  5
49
 10
0.0
 20
-3.5
 30
0.0
 11
-0.25
 21
-3.066988
 31
0.0
  0
LINE
  8
LAYER-2
  6
CONTINUOUS
 62
     7
  5
4A
 10
-0.25
 20
-3.066988
 30
0.0
 11
-0.5
 21
-3.5
 31
0.0
  0
LINE
  8
LAYER-2
  6
CONTINUOUS
 62
     7
  5
4B
 10
-0.5
 20
-3.5
 30
0.0
 11
-0.75
 21
-3.066988
 31
0.0
  0
LINE
  8
LAYER-2
  6
CONTINUOUS
 62
     7
  5
4C
 10
-0.75
 20
-3.066988
 30
0.0
 11
-1.0
 21
-3.5
 31
0.0
  0
LINE
  8
LAYER-2
  6
CONTINUOUS
 62
     7
  5
4D
 10
-1.0
 20
-3.5
 30
0.0
 11
-1.25
 21
-3.066988
 31
0.0
  0
LINE
  8
LAYER-2
  6
CONTINUOUS
 62
     7
  5
4E
 10
-1.25
 20
-3.066988
 30
0.0
 11
-1.5
 21
-3.5
 31
0.0
  0
LINE
  8
LAYER-2
  6
CONTINUOUS
 62
     7
  5
4F
 10
-1.5
 20
-3.5
 30
0.0
 11
-1.75
 21
-3.066988
 31
0.0
  0
LINE
  8
LAYER-2
  6
CONTINUOUS
 62
     7
  5
50
 10
-1.75
 20
-3.066988
 30
0.0
 11
-2.0
 21
-3.5
 31
0.0
  0
LINE
  8
LAYER-2
  6
CONTINUOUS
 62
     7
  5
51
 10
-2.0
 20
-3.5
 30
0.0
 11
-2.25
 21
-3.066988
 31
0.0
  0
LINE
  8
LAYER-2
  6
CONTINUOUS
 62
     7
  5
52
 10
-2.25
 20
-3.066988
 30
0.0
 11
-2.5
 21
-3.5
 31
0.0
  0
LINE
  8
LAYER-2
  6
CONTINUOUS
 62
     7
  5
53
 10
-2.5
 20
-3.5
 30
0.0
 11
-2.75
 21
-3.066988
 31
0.0
  0
LINE
  8
LAYER-2
  6
CONTINUOUS
 62
     7
  5
54
 10
-2.75
 20
-3.066988
 30
0.0
 11
-3.0
 21
-3.5
 31
0.0
  0
LINE
  8
LAYER-2
  6
CONTINUOUS
 62
     7
  5
55
 10
-3.0
 20
-3.5
 30
0.0
 11
-3.25
 21
-3.066988
 31
0.0
  0
LINE
  8
LAYER-2
  6
CONTINUOUS
 62
     7
  5
56
 10
-3.25
 20
-3.066988
 30
0.0
 11
-3.5
 21
-3.5
 31
0.0
  0
LINE
  8
LAYER-2
  6
CONTINUOUS
 62
     7
  5
57
 10
-3.5
 20
-3.5
 30
0.0
 11
-3.75
 21
-3.066988
 31
0.0
  0
LINE
  8
LAYER-2
  6
CONTINUOUS
 62
     7
  5
58
 10
-3.75
 20
-3.066988
 30
0.0
 11
-4.0
 21
-3.5
 31
0.0
  0
LINE
  8
LAYER-2
  6
CONTINUOUS
 62
     7
  5
59
 10
-3.75
 20
-3.066988
 30
0.0
 11
-3.25
 21
-3.066988
 31
0.0
  0
LINE
  8
LAYER-2
  6
CONTINUOUS
 62
     7
  5
5A
 10
-3.25
 20
-3.066988
 30
0.0
 11
-2.75
 21
-3.066988
 31
0.0
  0
LINE
  8
LAYER-2
  6
CONTINUOUS
 62
     7
  5
5B
 10
-2.75
 20
-3.066988
 30
0.0
 11
-2.25
 21
-3.066988
 31
0.0
  0
LINE
  8
LAYER-2
  6
CONTINUOUS
 62
     7
  5
5C
 10
-2.25
 20
-3.066988
 30
0.0
 11
-1.75
 21
-3.066988
 31
0.0
  0
LINE
  8
LAYER-2
  6
CONTINUOUS
 62
     7
  5
5D
 10
-1.75
 20
-3.066988
 30
0.0
 11
-1.25
 21
-3.066988
 31
0.0
  0
LINE
  8
LAYER-2
  6
CONTINUOUS
 62
     7
  5
5E
 10
-1.25
 20
-3.066988
 30
0.0
 11
-0.75
 21
-3.066988
 31
0.0
  0
LINE
  8
LAYER-2
  6
CONTINUOUS
 62
     7
  5
5F
 10
-0.75
 20
-3.066988
 30
0.0
 11
-0.25
 21
-3.066988
 31
0.0
  0
LINE
  8
LAYER-2
  6
CONTINUOUS
 62
     7
  5
60
 10
-0.25
 20
-3.066988
 30
0.0
 11
0.25
 21
-3.066988
 31
0.0
  0
LINE
  8
LAYER-2
  6
CONTINUOUS
 62
     7
  5
61
 10
0.25
 20
-3.066988
 30
0.0
 11
0.75
 21
-3.066988
 31
0.0
  0
LINE
  8
LAYER-2
  6
CONTINUOUS
 62
     7
  5
62
 10
0.75
 20
-3.066988
 30
0.0
 11
1.25
 21
-3.066988
 31
0.0
  0
LINE
  8
LAYER-2
  6
CONTINUOUS
 62
     7
  5
63
 10
1.25
 20
-3.066988
 30
0.0
 11
1.75
 21
-3.066988
 31
0.0
  0
LINE
  8
LAYER-2
  6
CONTINUOUS
 62
     7
  5
64
 10
1.75
 20
-3.066988
 30
0.0
 11
2.25
 21
-3.066988
 31
0.0
  0
LINE
  8
LAYER-2
  6
CONTINUOUS
 62
     7
  5
65
 10
2.25
 20
-3.066988
 30
0.0
 11
2.75
 21
-3.066988
 31
0.0
  0
LINE
  8
LAYER-2
  6
CONTINUOUS
 62
     7
  5
66
 10
2.75
 20
-3.066988
 30
0.0
 11
3.25
 21
-3.066988
 31
0.0
  0
LINE
  8
LAYER-2
  6
CONTINUOUS
 62
     7
  5
67
 10
3.25
 20
-3.066988
 30
0.0
 11
3.5
 21
-2.633975
 31
0.0
  0
LINE
  8
LAYER-2
  6
CONTINUOUS
 62
     7
  5
68
 10
3.5
 20
-2.633975
 30
0.0
 11
3.0
 21
-2.633975
 31
0.0
  0
LINE
  8
LAYER-2
  6
CONTINUOUS
 62
     7
  5
69
 10
3.0
 20
-2.633975
 30
0.0
 11
3.25
 21
-3.066988
 31
0.0
  0
LINE
  8
LAYER-2
  6
CONTINUOUS
 62
     7
  5
6A
 10
3.0
 20
-2.633975
 30
0.0
 11
2.75
 21
-3.066988
 31
0.0
  0
LINE
  8
LAYER-2
  6
CONTINUOUS
 62
     7
  5
6B
 10
2.75
 20
-3.066988
 30
0.0
 11
2.5
 21
-2.633975
 31
0.0
  0
LINE
  8
LAYER-2
  6
CONTINUOUS
 62
     7
  5
6C
 10
2.5
 20
-2.633975
 30
0.0
 11
2.25
 21
-3.066988
 31
0.0
  0
LINE
  8
LAYER-2
  6
CONTINUOUS
 62
     7
  5
6D
 10
2.25
 20
-3.066988
 30
0.0
 11
2.0
 21
-2.633975
 31
0.0
  0
LINE
  8
LAYER-2
  6
CONTINUOUS
 62
     7
  5
6E
 10
2.0
 20
-2.633975
 30
0.0
 11
1.75
 21
-3.066988
 31
0.0
  0
LINE
  8
LAYER-2
  6
CONTINUOUS
 62
     7
  5
6F
 10
1.75
 20
-3.066988
 30
0.0
 11
1.5
 21
-2.633975
 31
0.0
  0
LINE
  8
LAYER-2
  6
CONTINUOUS
 62
     7
  5
70
 10
1.5
 20
-2.633975
 30
0.0
 11
1.25
 21
-3.066988
 31
0.0
  0
LINE
  8
LAYER-2
  6
CONTINUOUS
 62
     7
  5
71
 10
1.25
 20
-3.066988
 30
0.0
 11
1.0
 21
-2.633975
 31
0.0
  0
LINE
  8
LAYER-2
  6
CONTINUOUS
 62
     7
  5
72
 10
1.0
 20
-2.633975
 30
0.0
 11
0.75
 21
-3.066988
 31
0.0
  0
LINE
  8
LAYER-2
  6
CONTINUOUS
 62
     7
  5
73
 10
0.75
 20
-3.066988
 30
0.0
 11
0.5
 21
-2.633975
 31
0.0
  0
LINE
  8
LAYER-2
  6
CONTINUOUS
 62
     7
  5
74
 10
0.5
 20
-2.633975
 30
0.0
 11
0.25
 21
-3.066988
 31
0.0
  0
LINE
  8
LAYER-2
  6
CONTINUOUS
 62
     7
  5
75
 10
0.25
 20
-3.066988
 30
0.0
 11
0.0
 21
-2.633975
 31
0.0
  0
LINE
  8
LAYER-2
  6
CONTINUOUS
 62
     7
  5
76
 10
0.0
 20
-2.633975
 30
0.0
 11
-0.25
 21
-3.066988
 31
0.0
  0
LINE
  8
LAYER-2
  6
CONTINUOUS
 62
     7
  5
77
 10
-0.25
 20
-3.066988
 30
0.0
 11
-0.5
 21
-2.633975
 31
0.0
  0
LINE
  8
LAYER-2
  6
CONTINUOUS
 62
     7
  5
78
 10
-0.5
 20
-2.633975
 30
0.0
 11
-0.75
 21
-3.066988
 31
0.0
  0
LINE
  8
LAYER-2
  6
CONTINUOUS
 62
     7
  5
79
 10
-0.75
 20
-3.066988
 30
0.0
 11
-1.0
 21
-2.633975
 31
0.0
  0
LINE
  8
LAYER-2
  6
CONTINUOUS
 62
     7
  5
7A
 10
-1.0
 20
-2.633975
 30
0.0
 11
-1.25
 21
-3.066988
 31
0.0
  0
LINE
  8
LAYER-2
  6
CONTINUOUS
 62
     7
  5
7B
 10
-1.25
 20
-3.066988
 30
0.0
 11
-1.5
 21
-2.633975
 31
0.0
  0
LINE
  8
LAYER-2
  6
CONTINUOUS
 62
     7
  5
7C
 10
-1.5
 20
-2.633975
 30
0.0
 11
-1.75
 21
-3.066988
 31
0.0
  0
LINE
  8
LAYER-2
  6
CONTINUOUS
 62
     7
  5
7D
 10
-1.75
 20
-3.066988
 30
0.0
 11
-2.0
 21
-2.633975
 31
0.0
  0
LINE
  8
LAYER-2
  6
CONTINUOUS
 62
     7
  5
7E
 10
-2.0
 20
-2.633975
 30
0.0
 11
-2.25
 21
-3.066988
 31
0.0
  0
LINE
  8
LAYER-2
  6
CONTINUOUS
 62
     7
  5
7F
 10
-2.25
 20
-3.066988
 30
0.0
 11
-2.5
 21
-2.633975
 31
0.0
  0
LINE
  8
LAYER-2
  6
CONTINUOUS
 62
     7
  5
80
 10
-2.5
 20
-2.633975
 30
0.0
 11
-2.75
 21
-3.066988
 31
0.0
  0
LINE
  8
LAYER-2
  6
CONTINUOUS
 62
     7
  5
81
 10
-2.75
 20
-3.066988
 30
0.0
 11
-3.0
 21
-2.633975
 31
0.0
  0
LINE
  8
LAYER-2
  6
CONTINUOUS
 62
     7
  5
82
 10
-3.0
 20
-2.633975
 30
0.0
 11
-3.25
 21
-3.066988
 31
0.0
  0
LINE
  8
LAYER-2
  6
CONTINUOUS
 62
     7
  5
83
 10
-3.25
 20
-3.066988
 30
0.0
 11
-3.5
 21
-2.633975
 31
0.0
  0
LINE
  8
LAYER-2
  6
CONTINUOUS
 62
     7
  5
84
 10
-3.5
 20
-2.633975
 30
0.0
 11
-3.75
 21
-3.066988
 31
0.0
  0
LINE
  8
LAYER-2
  6
CONTINUOUS
 62
     7
  5
85
 10
-3.5
 20
-2.633975
 30
0.0
 11
-3.0
 21
-2.633975
 31
0.0
  0
LINE
  8
LAYER-2
  6
CONTINUOUS
 62
     7
  5
86
 10
-3.0
 20
-2.633975
 30
0.0
 11
-2.5
 21
-2.633975
 31
0.0
  0
LINE
  8
LAYER-2
  6
CONTINUOUS
 62
     7
  5
87
 10
-2.5
 20
-2.633975
 30
0.0
 11
-2.0
 21
-2.633975
 31
0.0
  0
LINE
  8
LAYER-2
  6
CONTINUOUS
 62
     7
  5
88
 10
-2.0
 20
-2.633975
 30
0.0
 11
-1.5
 21
-2.633975
 31
0.0
  0
LINE
  8
LAYER-2
  6
CONTINUOUS
 62
     7
  5
89
 10
-1.5
 20
-2.633975
 30
0.0
 11
-1.0
 21
-2.633975
 31
0.0
  0
LINE
  8
LAYER-2
  6
CONTINUOUS
 62
     7
  5
8A
 10
-1.0
 20
-2.633975
 30
0.0
 11
-0.5
 21
-2.633975
 31
0.0
  0
LINE
  8
LAYER-2
  6
CONTINUOUS
 62
     7
  5
8B
 10
-0.5
 20
-2.633975
 30
0.0
 11
0.0
 21
-2.633975
 31
0.0
  0
LINE
  8
LAYER-2
  6
CONTINUOUS
 62
     7
  5
8C
 10
0.0
 20
-2.633975
 30
0.0
 11
0.5
 21
-2.633975
 31
0.0
  0
LINE
  8
LAYER-2
  6
CONTINUOUS
 62
     7
  5
8D
 10
0.5
 20
-2.633975
 30
0.0
 11
1.0
 21
-2.633975
 31
0.0
  0
LINE
  8
LAYER-2
  6
CONTINUOUS
 62
     7
  5
8E
 10
1.0
 20
-2.633975
 30
0.0
 11
1.5
 21
-2.633975
 31
0.0
  0
LINE
  8
LAYER-2
  6
CONTINUOUS
 62
     7
  5
8F
 10
1.5
 20
-2.633975
 30
0.0
 11
2.0
 21
-2.633975
 31
0.0
  0
LINE
  8
LAYER-2
  6
CONTINUOUS
 62
     7
  5
90
 10
2.0
 20
-2.633975
 30
0.0
 11
2.5
 21
-2.633975
 31
0.0
  0
LINE
  8
LAYER-2
  6
CONTINUOUS
 62
     7
  5
91
 10
2.5
 20
-2.633975
 30
0.0
 11
3.0
 21
-2.633975
 31
0.0
  0
LINE
  8
LAYER-2
  6
CONTINUOUS
 62
     7
  5
92
 10
3.5
 20
-2.633975
 30
0.0
 11
3.25
 21
-2.200963
 31
0.0
  0
LINE
  8
LAYER-2
  6
CONTINUOUS
 62
     7
  5
93
 10
3.25
 20
-2.200963
 30
0.0
 11
3.0
 21
-2.633975
 31
0.0
  0
LINE
  8
LAYER-2
  6
CONTINUOUS
 62
     7
  5
94
 10
3.0
 20
-2.633975
 30
0.0
 11
2.75
 21
-2.200963
 31
0.0
  0
LINE
  8
LAYER-2
  6
CONTINUOUS
 62
     7
  5
95
 10
2.75
 20
-2.200963
 30
0.0
 11
2.5
 21
-2.633975
 31
0.0
  0
LINE
  8
LAYER-2
  6
CONTINUOUS
 62
     7
  5
96
 10
2.5
 20
-2.633975
 30
0.0
 11
2.25
 21
-2.200963
 31
0.0
  0
LINE
  8
LAYER-2
  6
CONTINUOUS
 62
     7
  5
97
 10
2.25
 20
-2.200963
 30
0.0
 11
2.0
 21
-2.633975
 31
0.0
  0
LINE
  8
LAYER-2
  6
CONTINUOUS
 62
     7
  5
98
 10
2.0
 20
-2.633975
 30
0.0
 11
1.75
 21
-2.200963
 31
0.0
  0
LINE
  8
LAYER-2
  6
CONTINUOUS
 62
     7
  5
99
 10
1.75
 20
-2.200963
 30
0.0
 11
1.5
 21
-2.633975
 31
0.0
  0
LINE
  8
LAYER-2
  6
CONTINUOUS
 62
     7
  5
9A
 10
1.5
 20
-2.633975
 30
0.0
 11
1.25
 21
-2.200963
 31
0.0
  0
LINE
  8
LAYER-2
  6
CONTINUOUS
 62
     7
  5
9B
 10
1.25
 20
-2.200963
 30
0.0
 11
1.0
 21
-2.633975
 31
0.0
  0
LINE
  8
LAYER-2
  6
CONTINUOUS
 62
     7
  5
9C
 10
1.0
 20
-2.633975
 30
0.0
 11
0.75
 21
-2.200963
 31
0.0
  0
LINE
  8
LAYER-2
  6
CONTINUOUS
 62
     7
  5
9D
 10
0.75
 20
-2.200963
 30
0.0
 11
0.5
 21
-2.633975
 31
0.0
  0
LINE
  8
LAYER-2
  6
CONTINUOUS
 62
     7
  5
9E
 10
0.5
 20
-2.633975
 30
0.0
 11
0.25
 21
-2.200963
 31
0.0
  0
LINE
  8
LAYER-2
  6
CONTINUOUS
 62
     7
  5
9F
 10
0.25
 20
-2.200963
 30
0.0
 11
0.0
 21
-2.633975
 31
0.0
  0
LINE
  8
LAYER-2
  6
CONTINUOUS
 62
     7
  5
A0
 10
0.0
 20
-2.633975
 30
0.0
 11
-0.25
 21
-2.200963
 31
0.0
  0
LINE
  8
LAYER-2
  6
CONTINUOUS
 62
     7
  5
A1
 10
-0.25
 20
-2.200963
 30
0.0
 11
-0.5
 21
-2.633975
 31
0.0
  0
LINE
  8
LAYER-2
  6
CONTINUOUS
 62
     7
  5
A2
 10
-0.5
 20
-2.633975
 30
0.0
 11
-0.75
 21
-2.200963
 31
0.0
  0
LINE
  8
LAYER-2
  6
CONTINUOUS
 62
     7
  5
A3
 10
-0.75
 20
-2.200963
 30
0.0
 11
-1.0
 21
-2.633975
 31
0.0
  0
LINE
  8
LAYER-2
  6
CONTINUOUS
 62
     7
  5
A4
 10
-1.0
 20
-2.633975
 30
0.0
 11
-1.25
 21
-2.200963
 31
0.0
  0
LINE
  8
LAYER-2
  6
CONTINUOUS
 62
     7
  5
A5
 10
-1.25
 20
-2.200963
 30
0.0
 11
-1.5
 21
-2.633975
 31
0.0
  0
LINE
  8
LAYER-2
  6
CONTINUOUS
 62
     7
  5
A6
 10
-1.5
 20
-2.633975
 30
0.0
 11
-1.75
 21
-2.200963
 31
0.0
  0
LINE
  8
LAYER-2
  6
CONTINUOUS
 62
     7
  5
A7
 10
-1.75
 20
-2.200963
 30
0.0
 11
-2.0
 21
-2.633975
 31
0.0
  0
LINE
  8
LAYER-2
  6
CONTINUOUS
 62
     7
  5
A8
 10
-2.0
 20
-2.633975
 30
0.0
 11
-2.25
 21
-2.200963
 31
0.0
  0
LINE
  8
LAYER-2
  6
CONTINUOUS
 62
     7
  5
A9
 10
-2.25
 20
-2.200963
 30
0.0
 11
-2.5
 21
-2.633975
 31
0.0
  0
LINE
  8
LAYER-2
  6
CONTINUOUS
 62
     7
  5
AA
 10
-2.5
 20
-2.633975
 30
0.0
 11
-2.75
 21
-2.200963
 31
0.0
  0
LINE
  8
LAYER-2
  6
CONTINUOUS
 62
     7
  5
AB
 10
-2.75
 20
-2.200963
 30
0.0
 11
-3.0
 21
-2.633975
 31
0.0
  0
LINE
  8
LAYER-2
  6
CONTINUOUS
 62
     7
  5
AC
 10
-3.0
 20
-2.633975
 30
0.0
 11
-3.25
 21
-2.200963
 31
0.0
  0
LINE
  8
LAYER-2
  6
CONTINUOUS
 62
     7
  5
AD
 10
-3.25
 20
-2.200963
 30
0.0
 11
-3.5
 21
-2.633975
 31
0.0
  0
LINE
  8
LAYER-2
  6
CONTINUOUS
 62
     7
  5
AE
 10
-3.25
 20
-2.200963
 30
0.0
 11
-2.75
 21
-2.200963
 31
0.0
  0
LINE
  8
LAYER-2
  6
CONTINUOUS
 62
     7
  5
AF
 10
-2.75
 20
-2.200963
 30
0.0
 11
-2.25
 21
-2.200963
 31
0.0
  0
LINE
  8
LAYER-2
  6
CONTINUOUS
 62
     7
  5
B0
 10
-2.25
 20
-2.200963
 30
0.0
 11
-1.75
 21
-2.200963
 31
0.0
  0
LINE
  8
LAYER-2
  6
CONTINUOUS
 62
     7
  5
B1
 10
-1.75
 20
-2.200963
 30
0.0
 11
-1.25
 21
-2.200963
 31
0.0
  0
LINE
  8
LAYER-2
  6
CONTINUOUS
 62
     7
  5
B2
 10
-1.25
 20
-2.200963
 30
0.0
 11
-0.75
 21
-2.200963
 31
0.0
  0
LINE
  8
LAYER-2
  6
CONTINUOUS
 62
     7
  5
B3
 10
-0.75
 20
-2.200963
 30
0.0
 11
-0.25
 21
-2.200963
 31
0.0
  0
LINE
  8
LAYER-2
  6
CONTINUOUS
 62
     7
  5
B4
 10
-0.25
 20
-2.200963
 30
0.0
 11
0.25
 21
-2.200963
 31
0.0
  0
LINE
  8
LAYER-2
  6
CONTINUOUS
 62
     7
  5
B5
 10
0.25
 20
-2.200963
 30
0.0
 11
0.75
 21
-2.200963
 31
0.0
  0
LINE
  8
LAYER-2
  6
CONTINUOUS
 62
     7
  5
B6
 10
0.75
 20
-2.200963
 30
0.0
 11
1.25
 21
-2.200963
 31
0.0
  0
LINE
  8
LAYER-2
  6
CONTINUOUS
 62
     7
  5
B7
 10
1.25
 20
-2.200963
 30
0.0
 11
1.75
 21
-2.200963
 31
0.0
  0
LINE
  8
LAYER-2
  6
CONTINUOUS
 62
     7
  5
B8
 10
1.75
 20
-2.200963
 30
0.0
 11
2.25
 21
-2.200963
 31
0.0
  0
LINE
  8
LAYER-2
  6
CONTINUOUS
 62
     7
  5
B9
 10
2.25
 20
-2.200963
 30
0.0
 11
2.75
 21
-2.200963
 31
0.0
  0
LINE
  8
LAYER-2
  6
CONTINUOUS
 62
     7
  5
BA
 10
2.75
 20
-2.200963
 30
0.0
 11
3.25
 21
-2.200963
 31
0.0
  0
LINE
  8
LAYER-2
  6
CONTINUOUS
 62
     7
  5
BB
 10
3.25
 20
-2.200963
 30
0.0
 11
3.0
 21
-1.76795
 31
0.0
  0
LINE
  8
LAYER-2
  6
CONTINUOUS
 62
     7
  5
BC
 10
3.0
 20
-1.76795
 30
0.0
 11
2.75
 21
-2.200963
 31
0.0
  0
LINE
  8
LAYER-2
  6
CONTINUOUS
 62
     7
  5
BD
 10
2.75
 20
-2.200963
 30
0.0
 11
2.5
 21
-1.76795
 31
0.0
  0
LINE
  8
LAYER-2
  6
CONTINUOUS
 62
     7
  5
BE
 10
2.5
 20
-1.76795
 30
0.0
 11
2.25
 21
-2.200963
 31
0.0
  0
LINE
  8
LAYER-2
  6
CONTINUOUS
 62
     7
  5
BF
 10
2.25
 20
-2.200963
 30
0.0
 11
2.0
 21
-1.76795
 31
0.0
  0
LINE
  8
LAYER-2
  6
CONTINUOUS
 62
     7
  5
C0
 10
2.0
 20
-1.76795
 30
0.0
 11
1.75
 21
-2.200963
 31
0.0
  0
LINE
  8
LAYER-2
  6
CONTINUOUS
 62
     7
  5
C1
 10
1.75
 20
-2.200963
 30
0.0
 11
1.5
 21
-1.76795
 31
0.0
  0
LINE
  8
LAYER-2
  6
CONTINUOUS
 62
     7
  5
C2
 10
1.5
 20
-1.76795
 30
0.0
 11
1.25
 21
-2.200963
 31
0.0
  0
LINE
  8
LAYER-2
  6
CONTINUOUS
 62
     7
  5
C3
 10
1.25
 20
-2.200963
 30
0.0
 11
1.0
 21
-1.76795
 31
0.0
  0
LINE
  8
LAYER-2
  6
CONTINUOUS
 62
     7
  5
C4
 10
1.0
 20
-1.76795
 30
0.0
 11
0.75
 21
-2.200963
 31
0.0
  0
LINE
  8
LAYER-2
  6
CONTINUOUS
 62
     7
  5
C5
 10
0.75
 20
-2.200963
 30
0.0
 11
0.5
 21
-1.76795
 31
0.0
  0
LINE
  8
LAYER-2
  6
CONTINUOUS
 62
     7
  5
C6
 10
0.5
 20
-1.76795
 30
0.0
 11
0.25
 21
-2.200963
 31
0.0
  0
LINE
  8
LAYER-2
  6
CONTINUOUS
 62
     7
  5
C7
 10
0.25
 20
-2.200963
 30
0.0
 11
0.0
 21
-1.76795
 31
0.0
  0
LINE
  8
LAYER-2
  6
CONTINUOUS
 62
     7
  5
C8
 10
0.0
 20
-1.76795
 30
0.0
 11
-0.25
 21
-2.200963
 31
0.0
  0
LINE
  8
LAYER-2
  6
CONTINUOUS
 62
     7
  5
C9
 10
-0.25
 20
-2.200963
 30
0.0
 11
-0.5
 21
-1.76795
 31
0.0
  0
LINE
  8
LAYER-2
  6
CONTINUOUS
 62
     7
  5
CA
 10
-0.5
 20
-1.76795
 30
0.0
 11
-0.75
 21
-2.200963
 31
0.0
  0
LINE
  8
LAYER-2
  6
CONTINUOUS
 62
     7
  5
CB
 10
-0.75
 20
-2.200963
 30
0.0
 11
-1.0
 21
-1.76795
 31
0.0
  0
LINE
  8
LAYER-2
  6
CONTINUOUS
 62
     7
  5
CC
 10
-1.0
 20
-1.76795
 30
0.0
 11
-1.25
 21
-2.200963
 31
0.0
  0
LINE
  8
LAYER-2
  6
CONTINUOUS
 62
     7
  5
CD
 10
-1.25
 20
-2.200963
 30
0.0
 11
-1.5
 21
-1.76795
 31
0.0
  0
LINE
  8
LAYER-2
  6
CONTINUOUS
 62
     7
  5
CE
 10
-1.5
 20
-1.76795
 30
0.0
 11
-1.75
 21
-2.200963
 31
0.0
  0
LINE
  8
LAYER-2
  6
CONTINUOUS
 62
     7
  5
CF
 10
-1.75
 20
-2.200963
 30
0.0
 11
-2.0
 21
-1.76795
 31
0.0
  0
LINE
  8
LAYER-2
  6
CONTINUOUS
 62
     7
  5
D0
 10
-2.0
 20
-1.76795
 30
0.0
 11
-2.25
 21
-2.200963
 31
0.0
  0
LINE
  8
LAYER-2
  6
CONTINUOUS
 62
     7
  5
D1
 10
-2.25
 20
-2.200963
 30
0.0
 11
-2.5
 21
-1.76795
 31
0.0
  0
LINE
  8
LAYER-2
  6
CONTINUOUS
 62
     7
  5
D2
 10
-2.5
 20
-1.76795
 30
0.0
 11
-2.75
 21
-2.200963
 31
0.0
  0
LINE
  8
LAYER-2
  6
CONTINUOUS
 62
     7
  5
D3
 10
-2.75
 20
-2.200963
 30
0.0
 11
-3.0
 21
-1.76795
 31
0.0
  0
LINE
  8
LAYER-2
  6
CONTINUOUS
 62
     7
  5
D4
 10
-3.0
 20
-1.76795
 30
0.0
 11
-3.25
 21
-2.200963
 31
0.0
  0
LINE
  8
LAYER-2
  6
CONTINUOUS
 62
     7
  5
D5
 10
-3.0
 20
-1.76795
 30
0.0
 11
-2.5
 21
-1.76795
 31
0.0
  0
LINE
  8
LAYER-2
  6
CONTINUOUS
 62
     7
  5
D6
 10
-2.5
 20
-1.76795
 30
0.0
 11
-2.0
 21
-1.76795
 31
0.0
  0
LINE
  8
LAYER-2
  6
CONTINUOUS
 62
     7
  5
D7
 10
-2.0
 20
-1.76795
 30
0.0
 11
-1.5
 21
-1.76795
 31
0.0
  0
LINE
  8
LAYER-2
  6
CONTINUOUS
 62
     7
  5
D8
 10
-1.5
 20
-1.76795
 30
0.0
 11
-1.0
 21
-1.76795
 31
0.0
  0
LINE
  8
LAYER-2
  6
CONTINUOUS
 62
     7
  5
D9
 10
-1.0
 20
-1.76795
 30
0.0
 11
-0.5
 21
-1.76795
 31
0.0
  0
LINE
  8
LAYER-2
  6
CONTINUOUS
 62
     7
  5
DA
 10
-0.5
 20
-1.76795
 30
0.0
 11
0.0
 21
-1.76795
 31
0.0
  0
LINE
  8
LAYER-2
  6
CONTINUOUS
 62
     7
  5
DB
 10
0.0
 20
-1.76795
 30
0.0
 11
0.5
 21
-1.76795
 31
0.0
  0
LINE
  8
LAYER-2
  6
CONTINUOUS
 62
     7
  5
DC
 10
0.5
 20
-1.76795
 30
0.0
 11
1.0
 21
-1.76795
 31
0.0
  0
LINE
  8
LAYER-2
  6
CONTINUOUS
 62
     7
  5
DD
 10
1.0
 20
-1.76795
 30
0.0
 11
1.5
 21
-1.76795
 31
0.0
  0
LINE
  8
LAYER-2
  6
CONTINUOUS
 62
     7
  5
DE
 10
1.5
 20
-1.76795
 30
0.0
 11
2.0
 21
-1.76795
 31
0.0
  0
LINE
  8
LAYER-2
  6
CONTINUOUS
 62
     7
  5
DF
 10
2.0
 20
-1.76795
 30
0.0
 11
2.5
 21
-1.76795
 31
0.0
  0
LINE
  8
LAYER-2
  6
CONTINUOUS
 62
     7
  5
E0
 10
2.5
 20
-1.76795
 30
0.0
 11
3.0
 21
-1.76795
 31
0.0
  0
LINE
  8
LAYER-2
  6
CONTINUOUS
 62
     7
  5
E1
 10
3.0
 20
-1.76795
 30
0.0
 11
2.75
 21
-1.334938
 31
0.0
  0
LINE
  8
LAYER-2
  6
CONTINUOUS
 62
     7
  5
E2
 10
2.75
 20
-1.334938
 30
0.0
 11
2.5
 21
-1.76795
 31
0.0
  0
LINE
  8
LAYER-2
  6
CONTINUOUS
 62
     7
  5
E3
 10
2.5
 20
-1.76795
 30
0.0
 11
2.25
 21
-1.334938
 31
0.0
  0
LINE
  8
LAYER-2
  6
CONTINUOUS
 62
     7
  5
E4
 10
2.25
 20
-1.334938
 30
0.0
 11
2.0
 21
-1.76795
 31
0.0
  0
LINE
  8
LAYER-2
  6
CONTINUOUS
 62
     7
  5
E5
 10
2.0
 20
-1.76795
 30
0.0
 11
1.75
 21
-1.334938
 31
0.0
  0
LINE
  8
LAYER-2
  6
CONTINUOUS
 62
     7
  5
E6
 10
1.75
 20
-1.334938
 30
0.0
 11
1.5
 21
-1.76795
 31
0.0
  0
LINE
  8
LAYER-2
  6
CONTINUOUS
 62
     7
  5
E7
 10
1.5
 20
-1.76795
 30
0.0
 11
1.25
 21
-1.334938
 31
0.0
  0
LINE
  8
LAYER-2
  6
CONTINUOUS
 62
     7
  5
E8
 10
1.25
 20
-1.334938
 30
0.0
 11
1.0
 21
-1.76795
 31
0.0
  0
LINE
  8
LAYER-2
  6
CONTINUOUS
 62
     7
  5
E9
 10
1.0
 20
-1.76795
 30
0.0
 11
0.75
 21
-1.334938
 31
0.0
  0
LINE
  8
LAYER-2
  6
CONTINUOUS
 62
     7
  5
EA
 10
0.75
 20
-1.334938
 30
0.0
 11
0.5
 21
-1.76795
 31
0.0
  0
LINE
  8
LAYER-2
  6
CONTINUOUS
 62
     7
  5
EB
 10
0.5
 20
-1.76795
 30
0.0
 11
0.25
 21
-1.334938
 31
0.0
  0
LINE
  8
LAYER-2
  6
CONTINUOUS
 62
     7
  5
EC
 10
0.25
 20
-1.334938
 30
0.0
 11
0.0
 21
-1.76795
 31
0.0
  0
LINE
  8
LAYER-2
  6
CONTINUOUS
 62
     7
  5
ED
 10
0.0
 20
-1.76795
 30
0.0
 11
-0.25
 21
-1.334938
 31
0.0
  0
LINE
  8
LAYER-2
  6
CONTINUOUS
 62
     7
  5
EE
 10
-0.25
 20
-1.334938
 30
0.0
 11
-0.5
 21
-1.76795
 31
0.0
  0
LINE
  8
LAYER-2
  6
CONTINUOUS
 62
     7
  5
EF
 10
-0.5
 20
-1.76795
 30
0.0
 11
-0.75
 21
-1.334938
 31
0.0
  0
LINE
  8
LAYER-2
  6
CONTINUOUS
 62
     7
  5
F0
 10
-0.75
 20
-1.334938
 30
0.0
 11
-1.0
 21
-1.76795
 31
0.0
  0
LINE
  8
LAYER-2
  6
CONTINUOUS
 62
     7
  5
F1
 10
-1.0
 20
-1.76795
 30
0.0
 11
-1.25
 21
-1.334938
 31
0.0
  0
LINE
  8
LAYER-2
  6
CONTINUOUS
 62
     7
  5
F2
 10
-1.25
 20
-1.334938
 30
0.0
 11
-1.5
 21
-1.76795
 31
0.0
  0
LINE
  8
LAYER-2
  6
CONTINUOUS
 62
     7
  5
F3
 10
-1.5
 20
-1.76795
 30
0.0
 11
-1.75
 21
-1.334938
 31
0.0
  0
LINE
  8
LAYER-2
  6
CONTINUOUS
 62
     7
  5
F4
 10
-1.75
 20
-1.334938
 30
0.0
 11
-2.0
 21
-1.76795
 31
0.0
  0
LINE
  8
LAYER-2
  6
CONTINUOUS
 62
     7
  5
F5
 10
-2.0
 20
-1.76795
 30
0.0
 11
-2.25
 21
-1.334938
 31
0.0
  0
LINE
  8
LAYER-2
  6
CONTINUOUS
 62
     7
  5
F6
 10
-2.25
 20
-1.334938
 30
0.0
 11
-2.5
 21
-1.76795
 31
0.0
  0
LINE
  8
LAYER-2
  6
CONTINUOUS
 62
     7
  5
F7
 10
-2.5
 20
-1.76795
 30
0.0
 11
-2.75
 21
-1.334938
 31
0.0
  0
LINE
  8
LAYER-2
  6
CONTINUOUS
 62
     7
  5
F8
 10
-2.75
 20
-1.334938
 30
0.0
 11
-3.0
 21
-1.76795
 31
0.0
  0
LINE
  8
LAYER-2
  6
CONTINUOUS
 62
     7
  5
F9
 10
-2.75
 20
-1.334938
 30
0.0
 11
-2.25
 21
-1.334938
 31
0.0
  0
LINE
  8
LAYER-2
  6
CONTINUOUS
 62
     7
  5
FA
 10
-2.25
 20
-1.334938
 30
0.0
 11
-1.75
 21
-1.334938
 31
0.0
  0
LINE
  8
LAYER-2
  6
CONTINUOUS
 62
     7
  5
FB
 10
-1.75
 20
-1.334938
 30
0.0
 11
-1.25
 21
-1.334938
 31
0.0
  0
LINE
  8
LAYER-2
  6
CONTINUOUS
 62
     7
  5
FC
 10
-1.25
 20
-1.334938
 30
0.0
 11
-0.75
 21
-1.334938
 31
0.0
  0
LINE
  8
LAYER-2
  6
CONTINUOUS
 62
     7
  5
FD
 10
-0.75
 20
-1.334938
 30
0.0
 11
-0.25
 21
-1.334938
 31
0.0
  0
LINE
  8
LAYER-2
  6
CONTINUOUS
 62
     7
  5
FE
 10
-0.25
 20
-1.334938
 30
0.0
 11
0.25
 21
-1.334938
 31
0.0
  0
LINE
  8
LAYER-2
  6
CONTINUOUS
 62
     7
  5
FF
 10
0.25
 20
-1.334938
 30
0.0
 11
0.75
 21
-1.334938
 31
0.0
  0
LINE
  8
LAYER-2
  6
CONTINUOUS
 62
     7
  5
100
 10
0.75
 20
-1.334938
 30
0.0
 11
1.25
 21
-1.334938
 31
0.0
  0
LINE
  8
LAYER-2
  6
CONTINUOUS
 62
     7
  5
101
 10
1.25
 20
-1.334938
 30
0.0
 11
1.75
 21
-1.334938
 31
0.0
  0
LINE
  8
LAYER-2
  6
CONTINUOUS
 62
     7
  5
102
 10
1.75
 20
-1.334938
 30
0.0
 11
2.25
 21
-1.334938
 31
0.0
  0
LINE
  8
LAYER-2
  6
CONTINUOUS
 62
     7
  5
103
 10
2.25
 20
-1.334938
 30
0.0
 11
2.75
 21
-1.334938
 31
0.0
  0
LINE
  8
LAYER-2
  6
CONTINUOUS
 62
     7
  5
104
 10
2.75
 20
-1.334938
 30
0.0
 11
2.5
 21
-0.901925
 31
0.0
  0
LINE
  8
LAYER-2
  6
CONTINUOUS
 62
     7
  5
105
 10
2.5
 20
-0.901925
 30
0.0
 11
2.25
 21
-1.334938
 31
0.0
  0
LINE
  8
LAYER-2
  6
CONTINUOUS
 62
     7
  5
106
 10
2.25
 20
-1.334938
 30
0.0
 11
2.0
 21
-0.901925
 31
0.0
  0
LINE
  8
LAYER-2
  6
CONTINUOUS
 62
     7
  5
107
 10
2.0
 20
-0.901925
 30
0.0
 11
1.75
 21
-1.334938
 31
0.0
  0
LINE
  8
LAYER-2
  6
CONTINUOUS
 62
     7
  5
108
 10
1.75
 20
-1.334938
 30
0.0
 11
1.5
 21
-0.901925
 31
0.0
  0
LINE
  8
LAYER-2
  6
CONTINUOUS
 62
     7
  5
109
 10
1.5
 20
-0.901925
 30
0.0
 11
1.25
 21
-1.334938
 31
0.0
  0
LINE
  8
LAYER-2
  6
CONTINUOUS
 62
     7
  5
10A
 10
1.25
 20
-1.334938
 30
0.0
 11
1.0
 21
-0.901925
 31
0.0
  0
LINE
  8
LAYER-2
  6
CONTINUOUS
 62
     7
  5
10B
 10
1.0
 20
-0.901925
 30
0.0
 11
0.75
 21
-1.334938
 31
0.0
  0
LINE
  8
LAYER-2
  6
CONTINUOUS
 62
     7
  5
10C
 10
0.75
 20
-1.334938
 30
0.0
 11
0.5
 21
-0.901925
 31
0.0
  0
LINE
  8
LAYER-2
  6
CONTINUOUS
 62
     7
  5
10D
 10
0.5
 20
-0.901925
 30
0.0
 11
0.25
 21
-1.334938
 31
0.0
  0
LINE
  8
LAYER-2
  6
CONTINUOUS
 62
     7
  5
10E
 10
0.25
 20
-1.334938
 30
0.0
 11
0.0
 21
-0.901925
 31
0.0
  0
LINE
  8
LAYER-2
  6
CONTINUOUS
 62
     7
  5
10F
 10
0.0
 20
-0.901925
 30
0.0
 11
-0.25
 21
-1.334938
 31
0.0
  0
LINE
  8
LAYER-2
  6
CONTINUOUS
 62
     7
  5
110
 10
-0.25
 20
-1.334938
 30
0.0
 11
-0.5
 21
-0.901925
 31
0.0
  0
LINE
  8
LAYER-2
  6
CONTINUOUS
 62
     7
  5
111
 10
-0.5
 20
-0.901925
 30
0.0
 11
-0.75
 21
-1.334938
 31
0.0
  0
LINE
  8
LAYER-2
  6
CONTINUOUS
 62
     7
  5
112
 10
-0.75
 20
-1.334938
 30
0.0
 11
-1.0
 21
-0.901925
 31
0.0
  0
LINE
  8
LAYER-2
  6
CONTINUOUS
 62
     7
  5
113
 10
-1.0
 20
-0.901925
 30
0.0
 11
-1.25
 21
-1.334938
 31
0.0
  0
LINE
  8
LAYER-2
  6
CONTINUOUS
 62
     7
  5
114
 10
-1.25
 20
-1.334938
 30
0.0
 11
-1.5
 21
-0.901925
 31
0.0
  0
LINE
  8
LAYER-2
  6
CONTINUOUS
 62
     7
  5
115
 10
-1.5
 20
-0.901925
 30
0.0
 11
-1.75
 21
-1.334938
 31
0.0
  0
LINE
  8
LAYER-2
  6
CONTINUOUS
 62
     7
  5
116
 10
-1.75
 20
-1.334938
 30
0.0
 11
-2.0
 21
-0.901925
 31
0.0
  0
LINE
  8
LAYER-2
  6
CONTINUOUS
 62
     7
  5
117
 10
-2.0
 20
-0.901925
 30
0.0
 11
-2.25
 21
-1.334938
 31
0.0
  0
LINE
  8
LAYER-2
  6
CONTINUOUS
 62
     7
  5
118
 10
-2.25
 20
-1.334938
 30
0.0
 11
-2.5
 21
-0.901925
 31
0.0
  0
LINE
  8
LAYER-2
  6
CONTINUOUS
 62
     7
  5
119
 10
-2.5
 20
-0.901925
 30
0.0
 11
-2.75
 21
-1.334938
 31
0.0
  0
LINE
  8
LAYER-2
  6
CONTINUOUS
 62
     7
  5
11A
 10
-2.5
 20
-0.901925
 30
0.0
 11
-2.0
 21
-0.901925
 31
0.0
  0
LINE
  8
LAYER-2
  6
CONTINUOUS
 62
     7
  5
11B
 10
-2.0
 20
-0.901925
 30
0.0
 11
-1.5
 21
-0.901925
 31
0.0
  0
LINE
  8
LAYER-2
  6
CONTINUOUS
 62
     7
  5
11C
 10
-1.5
 20
-0.901925
 30
0.0
 11
-1.0
 21
-0.901925
 31
0.0
  0
LINE
  8
LAYER-2
  6
CONTINUOUS
 62
     7
  5
11D
 10
-1.0
 20
-0.901925
 30
0.0
 11
-0.5
 21
-0.901925
 31
0.0
  0
LINE
  8
LAYER-2
  6
CONTINUOUS
 62
     7
  5
11E
 10
-0.5
 20
-0.901925
 30
0.0
 11
0.0
 21
-0.901925
 31
0.0
  0
LINE
  8
LAYER-2
  6
CONTINUOUS
 62
     7
  5
11F
 10
0.0
 20
-0.901925
 30
0.0
 11
0.5
 21
-0.901925
 31
0.0
  0
LINE
  8
LAYER-2
  6
CONTINUOUS
 62
     7
  5
120
 10
0.5
 20
-0.901925
 30
0.0
 11
1.0
 21
-0.901925
 31
0.0
  0
LINE
  8
LAYER-2
  6
CONTINUOUS
 62
     7
  5
121
 10
1.0
 20
-0.901925
 30
0.0
 11
1.5
 21
-0.901925
 31
0.0
  0
LINE
  8
LAYER-2
  6
CONTINUOUS
 62
     7
  5
122
 10
1.5
 20
-0.901925
 30
0.0
 11
2.0
 21
-0.901925
 31
0.0
  0
LINE
  8
LAYER-2
  6
CONTINUOUS
 62
     7
  5
123
 10
2.0
 20
-0.901925
 30
0.0
 11
2.5
 21
-0.901925
 31
0.0
  0
LINE
  8
LAYER-2
  6
CONTINUOUS
 62
     7
  5
124
 10
2.5
 20
-0.901925
 30
0.0
 11
2.25
 21
-0.468913
 31
0.0
  0
LINE
  8
LAYER-2
  6
CONTINUOUS
 62
     7
  5
125
 10
2.25
 20
-0.468913
 30
0.0
 11
2.0
 21
-0.901925
 31
0.0
  0
LINE
  8
LAYER-2
  6
CONTINUOUS
 62
     7
  5
126
 10
2.0
 20
-0.901925
 30
0.0
 11
1.75
 21
-0.468913
 31
0.0
  0
LINE
  8
LAYER-2
  6
CONTINUOUS
 62
     7
  5
127
 10
1.75
 20
-0.468913
 30
0.0
 11
1.5
 21
-0.901925
 31
0.0
  0
LINE
  8
LAYER-2
  6
CONTINUOUS
 62
     7
  5
128
 10
1.5
 20
-0.901925
 30
0.0
 11
1.25
 21
-0.468913
 31
0.0
  0
LINE
  8
LAYER-2
  6
CONTINUOUS
 62
     7
  5
129
 10
1.25
 20
-0.468913
 30
0.0
 11
1.0
 21
-0.901925
 31
0.0
  0
LINE
  8
LAYER-2
  6
CONTINUOUS
 62
     7
  5
12A
 10
1.0
 20
-0.901925
 30
0.0
 11
0.75
 21
-0.468913
 31
0.0
  0
LINE
  8
LAYER-2
  6
CONTINUOUS
 62
     7
  5
12B
 10
0.75
 20
-0.468913
 30
0.0
 11
0.5
 21
-0.901925
 31
0.0
  0
LINE
  8
LAYER-2
  6
CONTINUOUS
 62
     7
  5
12C
 10
0.5
 20
-0.901925
 30
0.0
 11
0.25
 21
-0.468913
 31
0.0
  0
LINE
  8
LAYER-2
  6
CONTINUOUS
 62
     7
  5
12D
 10
0.25
 20
-0.468913
 30
0.0
 11
0.0
 21
-0.901925
 31
0.0
  0
LINE
  8
LAYER-2
  6
CONTINUOUS
 62
     7
  5
12E
 10
0.0
 20
-0.901925
 30
0.0
 11
-0.25
 21
-0.468913
 31
0.0
  0
LINE
  8
LAYER-2
  6
CONTINUOUS
 62
     7
  5
12F
 10
-0.25
 20
-0.468913
 30
0.0
 11
-0.5
 21
-0.901925
 31
0.0
  0
LINE
  8
LAYER-2
  6
CONTINUOUS
 62
     7
  5
130
 10
-0.5
 20
-0.901925
 30
0.0
 11
-0.75
 21
-0.468913
 31
0.0
  0
LINE
  8
LAYER-2
  6
CONTINUOUS
 62
     7
  5
131
 10
-0.75
 20
-0.468913
 30
0.0
 11
-1.0
 21
-0.901925
 31
0.0
  0
LINE
  8
LAYER-2
  6
CONTINUOUS
 62
     7
  5
132
 10
-1.0
 20
-0.901925
 30
0.0
 11
-1.25
 21
-0.468913
 31
0.0
  0
LINE
  8
LAYER-2
  6
CONTINUOUS
 62
     7
  5
133
 10
-1.25
 20
-0.468913
 30
0.0
 11
-1.5
 21
-0.901925
 31
0.0
  0
LINE
  8
LAYER-2
  6
CONTINUOUS
 62
     7
  5
134
 10
-1.5
 20
-0.901925
 30
0.0
 11
-1.75
 21
-0.468913
 31
0.0
  0
LINE
  8
LAYER-2
  6
CONTINUOUS
 62
     7
  5
135
 10
-1.75
 20
-0.468913
 30
0.0
 11
-2.0
 21
-0.901925
 31
0.0
  0
LINE
  8
LAYER-2
  6
CONTINUOUS
 62
     7
  5
136
 10
-2.0
 20
-0.901925
 30
0.0
 11
-2.25
 21
-0.468913
 31
0.0
  0
LINE
  8
LAYER-2
  6
CONTINUOUS
 62
     7
  5
137
 10
-2.25
 20
-0.468913
 30
0.0
 11
-2.5
 21
-0.901925
 31
0.0
  0
LINE
  8
LAYER-2
  6
CONTINUOUS
 62
     7
  5
138
 10
-2.25
 20
-0.468913
 30
0.0
 11
-1.75
 21
-0.468913
 31
0.0
  0
LINE
  8
LAYER-2
  6
CONTINUOUS
 62
     7
  5
139
 10
-1.75
 20
-0.468913
 30
0.0
 11
-1.25
 21
-0.468913
 31
0.0
  0
LINE
  8
LAYER-2
  6
CONTINUOUS
 62
     7
  5
13A
 10
-1.25
 20
-0.468913
 30
0.0
 11
-0.75
 21
-0.468913
 31
0.0
  0
LINE
  8
LAYER-2
  6
CONTINUOUS
 62
     7
  5
13B
 10
-0.75
 20
-0.468913
 30
0.0
 11
-0.25
 21
-0.468913
 31
0.0
  0
LINE
  8
LAYER-2
  6
CONTINUOUS
 62
     7
  5
13C
 10
-0.25
 20
-0.468913
 30
0.0
 11
0.25
 21
-0.468913
 31
0.0
  0
LINE
  8
LAYER-2
  6
CONTINUOUS
 62
     7
  5
13D
 10
0.25
 20
-0.468913
 30
0.0
 11
0.75
 21
-0.468913
 31
0.0
  0
LINE
  8
LAYER-2
  6
CONTINUOUS
 62
     7
  5
13E
 10
0.75
 20
-0.468913
 30
0.0
 11
1.25
 21
-0.468913
 31
0.0
  0
LINE
  8
LAYER-2
  6
CONTINUOUS
 62
     7
  5
13F
 10
1.25
 20
-0.468913
 30
0.0
 11
1.75
 21
-0.468913
 31
0.0
  0
LINE
  8
LAYER-2
  6
CONTINUOUS
 62
     7
  5
140
 10
1.75
 20
-0.468913
 30
0.0
 11
2.25
 21
-0.468913
 31
0.0
  0
LINE
  8
LAYER-2
  6
CONTINUOUS
 62
     7
  5
141
 10
2.25
 20
-0.468913
 30
0.0
 11
2.0
 21
-0.0359
 31
0.0
  0
LINE
  8
LAYER-2
  6
CONTINUOUS
 62
     7
  5
142
 10
2.0
 20
-0.0359
 30
0.0
 11
1.75
 21
-0.468913
 31
0.0
  0
LINE
  8
LAYER-2
  6
CONTINUOUS
 62
     7
  5
143
 10
1.75
 20
-0.468913
 30
0.0
 11
1.5
 21
-0.0359
 31
0.0
  0
LINE
  8
LAYER-2
  6
CONTINUOUS
 62
     7
  5
144
 10
1.5
 20
-0.0359
 30
0.0
 11
1.25
 21
-0.468913
 31
0.0
  0
LINE
  8
LAYER-2
  6
CONTINUOUS
 62
     7
  5
145
 10
1.25
 20
-0.468913
 30
0.0
 11
1.0
 21
-0.0359
 31
0.0
  0
LINE
  8
LAYER-2
  6
CONTINUOUS
 62
     7
  5
146
 10
1.0
 20
-0.0359
 30
0.0
 11
0.75
 21
-0.468913
 31
0.0
  0
LINE
  8
LAYER-2
  6
CONTINUOUS
 62
     7
  5
147
 10
0.75
 20
-0.468913
 30
0.0
 11
0.5
 21
-0.0359
 31
0.0
  0
LINE
  8
LAYER-2
  6
CONTINUOUS
 62
     7
  5
148
 10
0.5
 20
-0.0359
 30
0.0
 11
0.25
 21
-0.468913
 31
0.0
  0
LINE
  8
LAYER-2
  6
CONTINUOUS
 62
     7
  5
149
 10
0.25
 20
-0.468913
 30
0.0
 11
0.0
 21
-0.0359
 31
0.0
  0
LINE
  8
LAYER-2
  6
CONTINUOUS
 62
     7
  5
14A
 10
0.0
 20
-0.0359
 30
0.0
 11
-0.25
 21
-0.468913
 31
0.0
  0
LINE
  8
LAYER-2
  6
CONTINUOUS
 62
     7
  5
14B
 10
-0.25
 20
-0.468913
 30
0.0
 11
-0.5
 21
-0.0359
 31
0.0
  0
LINE
  8
LAYER-2
  6
CONTINUOUS
 62
     7
  5
14C
 10
-0.5
 20
-0.0359
 30
0.0
 11
-0.75
 21
-0.468913
 31
0.0
  0
LINE
  8
LAYER-2
  6
CONTINUOUS
 62
     7
  5
14D
 10
-0.75
 20
-0.468913
 30
0.0
 11
-1.0
 21
-0.0359
 31
0.0
  0
LINE
  8
LAYER-2
  6
CONTINUOUS
 62
     7
  5
14E
 10
-1.0
 20
-0.0359
 30
0.0
 11
-1.25
 21
-0.468913
 31
0.0
  0
LINE
  8
LAYER-2
  6
CONTINUOUS
 62
     7
  5
14F
 10
-1.25
 20
-0.468913
 30
0.0
 11
-1.5
 21
-0.0359
 31
0.0
  0
LINE
  8
LAYER-2
  6
CONTINUOUS
 62
     7
  5
150
 10
-1.5
 20
-0.0359
 30
0.0
 11
-1.75
 21
-0.468913
 31
0.0
  0
LINE
  8
LAYER-2
  6
CONTINUOUS
 62
     7
  5
151
 10
-1.75
 20
-0.468913
 30
0.0
 11
-2.0
 21
-0.0359
 31
0.0
  0
LINE
  8
LAYER-2
  6
CONTINUOUS
 62
     7
  5
152
 10
-2.0
 20
-0.0359
 30
0.0
 11
-2.25
 21
-0.468913
 31
0.0
  0
LINE
  8
LAYER-2
  6
CONTINUOUS
 62
     7
  5
153
 10
-2.0
 20
-0.0359
 30
0.0
 11
-1.5
 21
-0.0359
 31
0.0
  0
LINE
  8
LAYER-2
  6
CONTINUOUS
 62
     7
  5
154
 10
-1.5
 20
-0.0359
 30
0.0
 11
-1.0
 21
-0.0359
 31
0.0
  0
LINE
  8
LAYER-2
  6
CONTINUOUS
 62
     7
  5
155
 10
-1.0
 20
-0.0359
 30
0.0
 11
-0.5
 21
-0.0359
 31
0.0
  0
LINE
  8
LAYER-2
  6
CONTINUOUS
 62
     7
  5
156
 10
-0.5
 20
-0.0359
 30
0.0
 11
0.0
 21
-0.0359
 31
0.0
  0
LINE
  8
LAYER-2
  6
CONTINUOUS
 62
     7
  5
157
 10
0.0
 20
-0.0359
 30
0.0
 11
0.5
 21
-0.0359
 31
0.0
  0
LINE
  8
LAYER-2
  6
CONTINUOUS
 62
     7
  5
158
 10
0.5
 20
-0.0359
 30
0.0
 11
1.0
 21
-0.0359
 31
0.0
  0
LINE
  8
LAYER-2
  6
CONTINUOUS
 62
     7
  5
159
 10
1.0
 20
-0.0359
 30
0.0
 11
1.5
 21
-0.0359
 31
0.0
  0
LINE
  8
LAYER-2
  6
CONTINUOUS
 62
     7
  5
15A
 10
1.5
 20
-0.0359
 30
0.0
 11
2.0
 21
-0.0359
 31
0.0
  0
LINE
  8
LAYER-2
  6
CONTINUOUS
 62
     7
  5
15B
 10
2.0
 20
-0.0359
 30
0.0
 11
1.75
 21
0.397112
 31
0.0
  0
LINE
  8
LAYER-2
  6
CONTINUOUS
 62
     7
  5
15C
 10
1.75
 20
0.397112
 30
0.0
 11
1.5
 21
-0.0359
 31
0.0
  0
LINE
  8
LAYER-2
  6
CONTINUOUS
 62
     7
  5
15D
 10
1.5
 20
-0.0359
 30
0.0
 11
1.25
 21
0.397112
 31
0.0
  0
LINE
  8
LAYER-2
  6
CONTINUOUS
 62
     7
  5
15E
 10
1.25
 20
0.397112
 30
0.0
 11
1.0
 21
-0.0359
 31
0.0
  0
LINE
  8
LAYER-2
  6
CONTINUOUS
 62
     7
  5
15F
 10
1.0
 20
-0.0359
 30
0.0
 11
0.75
 21
0.397112
 31
0.0
  0
LINE
  8
LAYER-2
  6
CONTINUOUS
 62
     7
  5
160
 10
0.75
 20
0.397112
 30
0.0
 11
0.5
 21
-0.0359
 31
0.0
  0
LINE
  8
LAYER-2
  6
CONTINUOUS
 62
     7
  5
161
 10
0.5
 20
-0.0359
 30
0.0
 11
0.25
 21
0.397112
 31
0.0
  0
LINE
  8
LAYER-2
  6
CONTINUOUS
 62
     7
  5
162
 10
0.25
 20
0.397112
 30
0.0
 11
0.0
 21
-0.0359
 31
0.0
  0
LINE
  8
LAYER-2
  6
CONTINUOUS
 62
     7
  5
163
 10
0.0
 20
-0.0359
 30
0.0
 11
-0.25
 21
0.397112
 31
0.0
  0
LINE
  8
LAYER-2
  6
CONTINUOUS
 62
     7
  5
164
 10
-0.25
 20
0.397112
 30
0.0
 11
-0.5
 21
-0.0359
 31
0.0
  0
LINE
  8
LAYER-2
  6
CONTINUOUS
 62
     7
  5
165
 10
-0.5
 20
-0.0359
 30
0.0
 11
-0.75
 21
0.397112
 31
0.0
  0
LINE
  8
LAYER-2
  6
CONTINUOUS
 62
     7
  5
166
 10
-0.75
 20
0.397112
 30
0.0
 11
-1.0
 21
-0.0359
 31
0.0
  0
LINE
  8
LAYER-2
  6
CONTINUOUS
 62
     7
  5
167
 10
-1.0
 20
-0.0359
 30
0.0
 11
-1.25
 21
0.397112
 31
0.0
  0
LINE
  8
LAYER-2
  6
CONTINUOUS
 62
     7
  5
168
 10
-1.25
 20
0.397112
 30
0.0
 11
-1.5
 21
-0.0359
 31
0.0
  0
LINE
  8
LAYER-2
  6
CONTINUOUS
 62
     7
  5
169
 10
-1.5
 20
-0.0359
 30
0.0
 11
-1.75
 21
0.397112
 31
0.0
  0
LINE
  8
LAYER-2
  6
CONTINUOUS
 62
     7
  5
16A
 10
-1.75
 20
0.397112
 30
0.0
 11
-2.0
 21
-0.0359
 31
0.0
  0
LINE
  8
LAYER-2
  6
CONTINUOUS
 62
     7
  5
16B
 10
-1.75
 20
0.397112
 30
0.0
 11
-1.25
 21
0.397112
 31
0.0
  0
LINE
  8
LAYER-2
  6
CONTINUOUS
 62
     7
  5
16C
 10
-1.25
 20
0.397112
 30
0.0
 11
-0.75
 21
0.397112
 31
0.0
  0
LINE
  8
LAYER-2
  6
CONTINUOUS
 62
     7
  5
16D
 10
-0.75
 20
0.397112
 30
0.0
 11
-0.25
 21
0.397112
 31
0.0
  0
LINE
  8
LAYER-2
  6
CONTINUOUS
 62
     7
  5
16E
 10
-0.25
 20
0.397112
 30
0.0
 11
0.25
 21
0.397112
 31
0.0
  0
LINE
  8
LAYER-2
  6
CONTINUOUS
 62
     7
  5
16F
 10
0.25
 20
0.397112
 30
0.0
 11
0.75
 21
0.397112
 31
0.0
  0
LINE
  8
LAYER-2
  6
CONTINUOUS
 62
     7
  5
170
 10
0.75
 20
0.397112
 30
0.0
 11
1.25
 21
0.397112
 31
0.0
  0
LINE
  8
LAYER-2
  6
CONTINUOUS
 62
     7
  5
171
 10
1.25
 20
0.397112
 30
0.0
 11
1.75
 21
0.397112
 31
0.0
  0
LINE
  8
LAYER-2
  6
CONTINUOUS
 62
     7
  5
172
 10
1.75
 20
0.397112
 30
0.0
 11
1.5
 21
0.830125
 31
0.0
  0
LINE
  8
LAYER-2
  6
CONTINUOUS
 62
     7
  5
173
 10
1.5
 20
0.830125
 30
0.0
 11
1.25
 21
0.397112
 31
0.0
  0
LINE
  8
LAYER-2
  6
CONTINUOUS
 62
     7
  5
174
 10
1.25
 20
0.397112
 30
0.0
 11
1.0
 21
0.830125
 31
0.0
  0
LINE
  8
LAYER-2
  6
CONTINUOUS
 62
     7
  5
175
 10
1.0
 20
0.830125
 30
0.0
 11
0.75
 21
0.397112
 31
0.0
  0
LINE
  8
LAYER-2
  6
CONTINUOUS
 62
     7
  5
176
 10
0.75
 20
0.397112
 30
0.0
 11
0.5
 21
0.830125
 31
0.0
  0
LINE
  8
LAYER-2
  6
CONTINUOUS
 62
     7
  5
177
 10
0.5
 20
0.830125
 30
0.0
 11
0.25
 21
0.397112
 31
0.0
  0
LINE
  8
LAYER-2
  6
CONTINUOUS
 62
     7
  5
178
 10
0.25
 20
0.397112
 30
0.0
 11
0.0
 21
0.830125
 31
0.0
  0
LINE
  8
LAYER-2
  6
CONTINUOUS
 62
     7
  5
179
 10
0.0
 20
0.830125
 30
0.0
 11
-0.25
 21
0.397112
 31
0.0
  0
LINE
  8
LAYER-2
  6
CONTINUOUS
 62
     7
  5
17A
 10
-0.25
 20
0.397112
 30
0.0
 11
-0.5
 21
0.830125
 31
0.0
  0
LINE
  8
LAYER-2
  6
CONTINUOUS
 62
     7
  5
17B
 10
-0.5
 20
0.830125
 30
0.0
 11
-0.75
 21
0.397112
 31
0.0
  0
LINE
  8
LAYER-2
  6
CONTINUOUS
 62
     7
  5
17C
 10
-0.75
 20
0.397112
 30
0.0
 11
-1.0
 21
0.830125
 31
0.0
  0
LINE
  8
LAYER-2
  6
CONTINUOUS
 62
     7
  5
17D
 10
-1.0
 20
0.830125
 30
0.0
 11
-1.25
 21
0.397112
 31
0.0
  0
LINE
  8
LAYER-2
  6
CONTINUOUS
 62
     7
  5
17E
 10
-1.25
 20
0.397112
 30
0.0
 11
-1.5
 21
0.830125
 31
0.0
  0
LINE
  8
LAYER-2
  6
CONTINUOUS
 62
     7
  5
17F
 10
-1.5
 20
0.830125
 30
0.0
 11
-1.75
 21
0.397112
 31
0.0
  0
LINE
  8
LAYER-2
  6
CONTINUOUS
 62
     7
  5
180
 10
-1.5
 20
0.830125
 30
0.0
 11
-1.0
 21
0.830125
 31
0.0
  0
LINE
  8
LAYER-2
  6
CONTINUOUS
 62
     7
  5
181
 10
-1.0
 20
0.830125
 30
0.0
 11
-0.5
 21
0.830125
 31
0.0
  0
LINE
  8
LAYER-2
  6
CONTINUOUS
 62
     7
  5
182
 10
-0.5
 20
0.830125
 30
0.0
 11
0.0
 21
0.830125
 31
0.0
  0
LINE
  8
LAYER-2
  6
CONTINUOUS
 62
     7
  5
183
 10
0.0
 20
0.830125
 30
0.0
 11
0.5
 21
0.830125
 31
0.0
  0
LINE
  8
LAYER-2
  6
CONTINUOUS
 62
     7
  5
184
 10
0.5
 20
0.830125
 30
0.0
 11
1.0
 21
0.830125
 31
0.0
  0
LINE
  8
LAYER-2
  6
CONTINUOUS
 62
     7
  5
185
 10
1.0
 20
0.830125
 30
0.0
 11
1.5
 21
0.830125
 31
0.0
  0
LINE
  8
LAYER-2
  6
CONTINUOUS
 62
     7
  5
186
 10
1.5
 20
0.830125
 30
0.0
 11
1.25
 21
1.263138
 31
0.0
  0
LINE
  8
LAYER-2
  6
CONTINUOUS
 62
     7
  5
187
 10
1.25
 20
1.263138
 30
0.0
 11
1.0
 21
0.830125
 31
0.0
  0
LINE
  8
LAYER-2
  6
CONTINUOUS
 62
     7
  5
188
 10
1.0
 20
0.830125
 30
0.0
 11
0.75
 21
1.263138
 31
0.0
  0
LINE
  8
LAYER-2
  6
CONTINUOUS
 62
     7
  5
189
 10
0.75
 20
1.263138
 30
0.0
 11
0.5
 21
0.830125
 31
0.0
  0
LINE
  8
LAYER-2
  6
CONTINUOUS
 62
     7
  5
18A
 10
0.5
 20
0.830125
 30
0.0
 11
0.25
 21
1.263138
 31
0.0
  0
LINE
  8
LAYER-2
  6
CONTINUOUS
 62
     7
  5
18B
 10
0.25
 20
1.263138
 30
0.0
 11
0.0
 21
0.830125
 31
0.0
  0
LINE
  8
LAYER-2
  6
CONTINUOUS
 62
     7
  5
18C
 10
0.0
 20
0.830125
 30
0.0
 11
-0.25
 21
1.263138
 31
0.0
  0
LINE
  8
LAYER-2
  6
CONTINUOUS
 62
     7
  5
18D
 10
-0.25
 20
1.263138
 30
0.0
 11
-0.5
 21
0.830125
 31
0.0
  0
LINE
  8
LAYER-2
  6
CONTINUOUS
 62
     7
  5
18E
 10
-0.5
 20
0.830125
 30
0.0
 11
-0.75
 21
1.263138
 31
0.0
  0
LINE
  8
LAYER-2
  6
CONTINUOUS
 62
     7
  5
18F
 10
-0.75
 20
1.263138
 30
0.0
 11
-1.0
 21
0.830125
 31
0.0
  0
LINE
  8
LAYER-2
  6
CONTINUOUS
 62
     7
  5
190
 10
-1.0
 20
0.830125
 30
0.0
 11
-1.25
 21
1.263138
 31
0.0
  0
LINE
  8
LAYER-2
  6
CONTINUOUS
 62
     7
  5
191
 10
-1.25
 20
1.263138
 30
0.0
 11
-1.5
 21
0.830125
 31
0.0
  0
LINE
  8
LAYER-2
  6
CONTINUOUS
 62
     7
  5
192
 10
-1.25
 20
1.263138
 30
0.0
 11
-0.75
 21
1.263138
 31
0.0
  0
LINE
  8
LAYER-2
  6
CONTINUOUS
 62
     7
  5
193
 10
-0.75
 20
1.263138
 30
0.0
 11
-0.25
 21
1.263138
 31
0.0
  0
LINE
  8
LAYER-2
  6
CONTINUOUS
 62
     7
  5
194
 10
-0.25
 20
1.263138
 30
0.0
 11
0.25
 21
1.263138
 31
0.0
  0
LINE
  8
LAYER-2
  6
CONTINUOUS
 62
     7
  5
195
 10
0.25
 20
1.263138
 30
0.0
 11
0.75
 21
1.263138
 31
0.0
  0
LINE
  8
LAYER-2
  6
CONTINUOUS
 62
     7
  5
196
 10
0.75
 20
1.263138
 30
0.0
 11
1.25
 21
1.263138
 31
0.0
  0
LINE
  8
LAYER-2
  6
CONTINUOUS
 62
     7
  5
197
 10
1.25
 20
1.263138
 30
0.0
 11
1.0
 21
1.69615
 31
0.0
  0
LINE
  8
LAYER-2
  6
CONTINUOUS
 62
     7
  5
198
 10
1.0
 20
1.69615
 30
0.0
 11
0.75
 21
1.263138
 31
0.0
  0
LINE
  8
LAYER-2
  6
CONTINUOUS
 62
     7
  5
199
 10
0.75
 20
1.263138
 30
0.0
 11
0.5
 21
1.69615
 31
0.0
  0
LINE
  8
LAYER-2
  6
CONTINUOUS
 62
     7
  5
19A
 10
0.5
 20
1.69615
 30
0.0
 11
0.25
 21
1.263138
 31
0.0
  0
LINE
  8
LAYER-2
  6
CONTINUOUS
 62
     7
  5
19B
 10
0.25
 20
1.263138
 30
0.0
 11
0.0
 21
1.69615
 31
0.0
  0
LINE
  8
LAYER-2
  6
CONTINUOUS
 62
     7
  5
19C
 10
0.0
 20
1.69615
 30
0.0
 11
-0.25
 21
1.263138
 31
0.0
  0
LINE
  8
LAYER-2
  6
CONTINUOUS
 62
     7
  5
19D
 10
-0.25
 20
1.263138
 30
0.0
 11
-0.5
 21
1.69615
 31
0.0
  0
LINE
  8
LAYER-2
  6
CONTINUOUS
 62
     7
  5
19E
 10
-0.5
 20
1.69615
 30
0.0
 11
-0.75
 21
1.263138
 31
0.0
  0
LINE
  8
LAYER-2
  6
CONTINUOUS
 62
     7
  5
19F
 10
-0.75
 20
1.263138
 30
0.0
 11
-1.0
 21
1.69615
 31
0.0
  0
LINE
  8
LAYER-2
  6
CONTINUOUS
 62
     7
  5
1A0
 10
-1.0
 20
1.69615
 30
0.0
 11
-1.25
 21
1.263138
 31
0.0
  0
LINE
  8
LAYER-2
  6
CONTINUOUS
 62
     7
  5
1A1
 10
-1.0
 20
1.69615
 30
0.0
 11
-0.5
 21
1.69615
 31
0.0
  0
LINE
  8
LAYER-2
  6
CONTINUOUS
 62
     7
  5
1A2
 10
-0.5
 20
1.69615
 30
0.0
 11
0.0
 21
1.69615
 31
0.0
  0
LINE
  8
LAYER-2
  6
CONTINUOUS
 62
     7
  5
1A3
 10
0.0
 20
1.69615
 30
0.0
 11
0.5
 21
1.69615
 31
0.0
  0
LINE
  8
LAYER-2
  6
CONTINUOUS
 62
     7
  5
1A4
 10
0.5
 20
1.69615
 30
0.0
 11
1.0
 21
1.69615
 31
0.0
  0
LINE
  8
LAYER-2
  6
CONTINUOUS
 62
     7
  5
1A5
 10
1.0
 20
1.69615
 30
0.0
 11
0.75
 21
2.129163
 31
0.0
  0
LINE
  8
LAYER-2
  6
CONTINUOUS
 62
     7
  5
1A6
 10
0.75
 20
2.129163
 30
0.0
 11
0.5
 21
1.69615
 31
0.0
  0
LINE
  8
LAYER-2
  6
CONTINUOUS
 62
     7
  5
1A7
 10
0.5
 20
1.69615
 30
0.0
 11
0.25
 21
2.129163
 31
0.0
  0
LINE
  8
LAYER-2
  6
CONTINUOUS
 62
     7
  5
1A8
 10
0.25
 20
2.129163
 30
0.0
 11
0.0
 21
1.69615
 31
0.0
  0
LINE
  8
LAYER-2
  6
CONTINUOUS
 62
     7
  5
1A9
 10
0.0
 20
1.69615
 30
0.0
 11
-0.25
 21
2.129163
 31
0.0
  0
LINE
  8
LAYER-2
  6
CONTINUOUS
 62
     7
  5
1AA
 10
-0.25
 20
2.129163
 30
0.0
 11
-0.5
 21
1.69615
 31
0.0
  0
LINE
  8
LAYER-2
  6
CONTINUOUS
 62
     7
  5
1AB
 10
-0.5
 20
1.69615
 30
0.0
 11
-0.75
 21
2.129163
 31
0.0
  0
LINE
  8
LAYER-2
  6
CONTINUOUS
 62
     7
  5
1AC
 10
-0.75
 20
2.129163
 30
0.0
 11
-1.0
 21
1.69615
 31
0.0
  0
LINE
  8
LAYER-2
  6
CONTINUOUS
 62
     7
  5
1AD
 10
-0.75
 20
2.129163
 30
0.0
 11
-0.25
 21
2.129163
 31
0.0
  0
LINE
  8
LAYER-2
  6
CONTINUOUS
 62
     7
  5
1AE
 10
-0.25
 20
2.129163
 30
0.0
 11
0.25
 21
2.129163
 31
0.0
  0
LINE
  8
LAYER-2
  6
CONTINUOUS
 62
     7
  5
1AF
 10
0.25
 20
2.129163
 30
0.0
 11
0.75
 21
2.129163
 31
0.0
  0
LINE
  8
LAYER-2
  6
CONTINUOUS
 62
     7
  5
1B0
 10
0.75
 20
2.129163
 30
0.0
 11
0.5
 21
2.562175
 31
0.0
  0
LINE
  8
LAYER-2
  6
CONTINUOUS
 62
     7
  5
1B1
 10
0.5
 20
2.562175
 30
0.0
 11
0.25
 21
2.129163
 31
0.0
  0
LINE
  8
LAYER-2
  6
CONTINUOUS
 62
     7
  5
1B2
 10
0.25
 20
2.129163
 30
0.0
 11
0.0
 21
2.562175
 31
0.0
  0
LINE
  8
LAYER-2
  6
CONTINUOUS
 62
     7
  5
1B3
 10
0.0
 20
2.562175
 30
0.0
 11
-0.25
 21
2.129163
 31
0.0
  0
LINE
  8
LAYER-2
  6
CONTINUOUS
 62
     7
  5
1B4
 10
-0.25
 20
2.129163
 30
0.0
 11
-0.5
 21
2.562175
 31
0.0
  0
LINE
  8
LAYER-2
  6
CONTINUOUS
 62
     7
  5
1B5
 10
-0.5
 20
2.562175
 30
0.0
 11
-0.75
 21
2.129163
 31
0.0
  0
LINE
  8
LAYER-2
  6
CONTINUOUS
 62
     7
  5
1B6
 10
-0.5
 20
2.562175
 30
0.0
 11
0.0
 21
2.562175
 31
0.0
  0
LINE
  8
LAYER-2
  6
CONTINUOUS
 62
     7
  5
1B7
 10
0.0
 20
2.562175
 30
0.0
 11
0.5
 21
2.562175
 31
0.0
  0
LINE
  8
LAYER-2
  6
CONTINUOUS
 62
     7
  5
1B8
 10
0.5
 20
2.562175
 30
0.0
 11
0.25
 21
2.995188
 31
0.0
  0
LINE
  8
LAYER-2
  6
CONTINUOUS
 62
     7
  5
1B9
 10
0.25
 20
2.995188
 30
0.0
 11
0.0
 21
2.562175
 31
0.0
  0
LINE
  8
LAYER-2
  6
CONTINUOUS
 62
     7
  5
1BA
 10
0.0
 20
2.562175
 30
0.0
 11
-0.25
 21
2.995188
 31
0.0
  0
LINE
  8
LAYER-2
  6
CONTINUOUS
 62
     7
  5
1BB
 10
-0.25
 20
2.995188
 30
0.0
 11
-0.5
 21
2.562175
 31
0.0
  0
LINE
  8
LAYER-2
  6
CONTINUOUS
 62
     7
  5
1BC
 10
-0.25
 20
2.995188
 30
0.0
 11
0.25
 21
2.995188
 31
0.0
  0
LINE
  8
LAYER-2
  6
CONTINUOUS
 62
     7
  5
1BD
 10
0.25
 20
2.995188
 30
0.0
 11
0.0
 21
3.4282
 31
0.0
  0
LINE
  8
LAYER-2
  6
CONTINUOUS
 62
     7
  5
1BE
 10
0.0
 20
3.4282
 30
0.0
 11
-0.25
 21
2.995188
 31
0.0
  0
LINE
  8
LAYER-2
  6
CONTINUOUS
 62
     7
  5
1BF
 10
3.5
 20
-3.5
 30
0.0
 11
3.75
 21
-3.066988
 31
0.0
  0
LINE
  8
LAYER-2
  6
CONTINUOUS
 62
     7
  5
1C0
 10
3.75
 20
-3.066988
 30
0.0
 11
3.5
 21
-2.633975
 31
0.0
  0
LINE
  8
LAYER-2
  6
CONTINUOUS
 62
     7
  5
1C1
 10
4.0
 20
-3.5
 30
0.0
 11
3.75
 21
-3.066988
 31
0.0
  0
LINE
  8
LAYER-2
  6
CONTINUOUS
 62
     7
  5
1C2
 10
3.75
 20
-3.066988
 30
0.0
 11
3.25
 21
-3.066988
 31
0.0
  0
ENDSEC
  0
EOF
