  0
SECTION
  2
HEADER
  9
$ACADVER
  1
AC1009
  9
$INSBASE
 10
0.0
 20
0.0
 30
0.0
  9
$EXTMIN
 10
69.882113754173815
 20
76.16689845786334
 30
0.0
  9
$EXTMAX
 10
549.11060613634629
 20
377.7862011305001
 30
0.0
  9
$LIMMIN
 10
0.0
 20
0.0
  9
$LIMMAX
 10
420.0
 20
297.0
  9
$ORTHOMODE
 70
     1
  9
$REGENMODE
 70
     1
  9
$FILLMODE
 70
     1
  9
$QTEXTMODE
 70
     0
  9
$MIRRTEXT
 70
     1
  9
$DRAGMODE
 70
     2
  9
$LTSCALE
 40
1.0
  9
$OSMODE
 70
   163
  9
$ATTMODE
 70
     1
  9
$TEXTSIZE
 40
2.5
  9
$TRACEWID
 40
1.0
  9
$TEXTSTYLE
  7
STANDARD
  9
$CLAYER
  8
0
  9
$CELTYPE
  6
BYLAYER
  9
$CECOLOR
 62
   256
  9
$DIMSCALE
 40
1.0
  9
$DIMASZ
 40
2.5
  9
$DIMEXO
 40
0.625
  9
$DIMDLI
 40
3.75
  9
$DIMRND
 40
0.0
  9
$DIMDLE
 40
0.0
  9
$DIMEXE
 40
1.25
  9
$DIMTP
 40
0.0
  9
$DIMTM
 40
0.0
  9
$DIMTXT
 40
2.5
  9
$DIMCEN
 40
2.5
  9
$DIMTSZ
 40
0.0
  9
$DIMTOL
 70
     0
  9
$DIMLIM
 70
     0
  9
$DIMTIH
 70
     0
  9
$DIMTOH
 70
     0
  9
$DIMSE1
 70
     0
  9
$DIMSE2
 70
     0
  9
$DIMTAD
 70
     1
  9
$DIMZIN
 70
     8
  9
$DIMBLK
  1

  9
$DIMASO
 70
     1
  9
$DIMSHO
 70
     1
  9
$DIMPOST
  1

  9
$DIMAPOST
  1

  9
$DIMALT
 70
     0
  9
$DIMALTD
 70
     3
  9
$DIMALTF
 40
0.03937007874016
  9
$DIMLFAC
 40
1.0
  9
$DIMTOFL
 70
     1
  9
$DIMTVP
 40
0.0
  9
$DIMTIX
 70
     0
  9
$DIMSOXD
 70
     0
  9
$DIMSAH
 70
     0
  9
$DIMBLK1
  1

  9
$DIMBLK2
  1

  9
$DIMSTYLE
  2
ISO-25
  9
$DIMCLRD
 70
     0
  9
$DIMCLRE
 70
     0
  9
$DIMCLRT
 70
     0
  9
$DIMTFAC
 40
1.0
  9
$DIMGAP
 40
0.625
  9
$LUNITS
 70
     2
  9
$LUPREC
 70
     4
  9
$SKETCHINC
 40
1.0
  9
$FILLETRAD
 40
10.0
  9
$AUNITS
 70
     0
  9
$AUPREC
 70
     0
  9
$MENU
  1
.
  9
$ELEVATION
 40
0.0
  9
$PELEVATION
 40
0.0
  9
$THICKNESS
 40
0.0
  9
$LIMCHECK
 70
     0
  9
$BLIPMODE
 70
     0
  9
$CHAMFERA
 40
10.0
  9
$CHAMFERB
 40
10.0
  9
$SKPOLY
 70
     0
  9
$TDCREATE
 40
2452152.0204437501
  9
$TDUPDATE
 40
2452152.0239090272
  9
$TDINDWG
 40
0.0034697917
  9
$TDUSRTIMER
 40
0.0034659722
  9
$USRTIMER
 70
     1
  9
$ANGBASE
 50
0.0
  9
$ANGDIR
 70
     0
  9
$PDMODE
 70
     0
  9
$PDSIZE
 40
0.0
  9
$PLINEWID
 40
0.0
  9
$COORDS
 70
     0
  9
$SPLFRAME
 70
     0
  9
$SPLINETYPE
 70
     6
  9
$SPLINESEGS
 70
     8
  9
$ATTDIA
 70
     0
  9
$ATTREQ
 70
     1
  9
$HANDLING
 70
  4097
  9
$HANDSEED
  5
306
  9
$SURFTAB1
 70
     6
  9
$SURFTAB2
 70
     6
  9
$SURFTYPE
 70
     6
  9
$SURFU
 70
     6
  9
$SURFV
 70
     6
  9
$UCSNAME
  2

  9
$UCSORG
 10
0.0
 20
0.0
 30
0.0
  9
$UCSXDIR
 10
1.0
 20
0.0
 30
0.0
  9
$UCSYDIR
 10
0.0
 20
1.0
 30
0.0
  9
$PUCSNAME
  2

  9
$PUCSORG
 10
0.0
 20
0.0
 30
0.0
  9
$PUCSXDIR
 10
1.0
 20
0.0
 30
0.0
  9
$PUCSYDIR
 10
0.0
 20
1.0
 30
0.0
  9
$USERI1
 70
     0
  9
$USERI2
 70
     0
  9
$USERI3
 70
     0
  9
$USERI4
 70
     0
  9
$USERI5
 70
     0
  9
$USERR1
 40
0.0
  9
$USERR2
 40
0.0
  9
$USERR3
 40
0.0
  9
$USERR4
 40
0.0
  9
$USERR5
 40
0.0
  9
$WORLDVIEW
 70
     1
  9
$SHADEDGE
 70
     3
  9
$SHADEDIF
 70
    70
  9
$TILEMODE
 70
     1
  9
$MAXACTVP
 70
    64
  9
$PLIMCHECK
 70
     0
  9
$PEXTMIN
 10
1.0000000000000000E+020
 20
1.0000000000000000E+020
 30
1.0000000000000000E+020
  9
$PEXTMAX
 10
-1.0000000000000000E+020
 20
-1.0000000000000000E+020
 30
-1.0000000000000000E+020
  9
$PLIMMIN
 10
0.0
 20
0.0
  9
$PLIMMAX
 10
420.0
 20
297.0
  9
$UNITMODE
 70
     0
  9
$VISRETAIN
 70
     1
  9
$PLINEGEN
 70
     0
  9
$PSLTSCALE
 70
     1
  0
ENDSEC
  0
SECTION
  2
TABLES
  0
TABLE
  2
VPORT
 70
     7
  0
VPORT
  2
*ACTIVE
 70
     0
 10
0.0
 20
0.0
 11
1.0
 21
1.0
 12
397.79608431124251
 22
221.8442844567403
 13
0.0
 23
0.0
 14
10.0
 24
10.0
 15
10.0
 25
10.0
 16
0.0
 26
0.0
 36
1.0
 17
0.0
 27
0.0
 37
0.0
 40
443.74358031014208
 41
1.6916221033868091
 42
50.0
 43
0.0
 44
0.0
 50
0.0
 51
0.0
 71
     0
 72
   100
 73
     1
 74
     3
 75
     0
 76
     0
 77
     0
 78
     0
  0
ENDTAB
  0
TABLE
  2
LTYPE
 70
     1
  0
LTYPE
  2
CONTINUOUS
 70
     0
  3
Solid line
 72
    65
 73
     0
 40
0.0
  0
ENDTAB
  0
TABLE
  2
LAYER
 70
     1
  0
LAYER
  2
0
 70
     0
 62
     7
  6
CONTINUOUS
  0
ENDTAB
  0
TABLE
  2
STYLE
 70
     1
  0
STYLE
  2
STANDARD
 70
     0
 40
0.0
 41
1.0
 50
0.0
 71
     0
 42
2.5
  3
txt
  4

  0
ENDTAB
  0
TABLE
  2
VIEW
 70
     0
  0
ENDTAB
  0
TABLE
  2
UCS
 70
     0
  0
ENDTAB
  0
TABLE
  2
APPID
 70
     3
  0
APPID
  2
ACAD
 70
     0
  0
APPID
  2
DCO15
 70
     0
  0
APPID
  2
ADE
 70
     0
  0
ENDTAB
  0
TABLE
  2
DIMSTYLE
 70
     1
  0
DIMSTYLE
  2
ISO-25
 70
     0
  3

  4

  5

  6

  7

 40
1.0
 41
2.5
 42
0.625
 43
3.75
 44
1.25
 45
0.0
 46
0.0
 47
0.0
 48
0.0
140
2.5
141
2.5
142
0.0
143
0.03937007874016
144
1.0
145
0.0
146
1.0
147
0.625
 71
     0
 72
     0
 73
     0
 74
     0
 75
     0
 76
     0
 77
     1
 78
     8
170
     0
171
     3
172
     1
173
     0
174
     0
175
     0
176
     0
177
     0
178
     0
  0
ENDTAB
  0
ENDSEC
  0
SECTION
  2
BLOCKS
  0
BLOCK
  8
0
  2
$MODEL_SPACE
 70
     0
 10
0.0
 20
0.0
 30
0.0
  3
$MODEL_SPACE
  1

  0
ENDBLK
  5
21
  8
0
  0
BLOCK
 67
     1
  8
0
  2
$PAPER_SPACE
 70
     0
 10
0.0
 20
0.0
 30
0.0
  3
$PAPER_SPACE
  1

  0
ENDBLK
  5
1D
 67
     1
  8
0
  0
ENDSEC
  0
SECTION
  2
ENTITIES
  0
LINE
  5
1AA
  8
0
 10
539.62875537889647
 20
339.88639341615112
 30
0.0
 11
549.11060613634629
 21
339.88639341615112
 31
0.0
  0
LINE
  5
1AB
  8
0
 10
191.96092631023649
 20
90.379326738135319
 30
0.0
 11
191.96092631023649
 21
79.325216542174644
 31
0.0
  0
LINE
  5
1AC
  8
0
 10
218.8261680842399
 20
90.379326738135319
 30
0.0
 11
218.8261680842399
 21
79.325216542174644
 31
0.0
  0
LINE
  5
1AD
  8
0
 10
253.59295011734679
 20
90.379326738135319
 30
0.0
 11
253.59295011734679
 21
79.325216542174644
 31
0.0
  0
LINE
  5
1AE
  8
0
 10
294.68096715376572
 20
90.379326738135319
 30
0.0
 11
294.68096715376572
 21
79.325216542174644
 31
0.0
  0
LINE
  5
1AF
  8
0
 10
332.60836668852852
 20
90.379326738135319
 30
0.0
 11
332.60836668852852
 21
79.325216542174644
 31
0.0
  0
LINE
  5
1B0
  8
0
 10
380.01761698074142
 20
90.379326738135319
 30
0.0
 11
380.01761698074142
 21
79.325216542174644
 31
0.0
  0
LINE
  5
1B1
  8
0
 10
408.46316575805429
 20
90.379326738135319
 30
0.0
 11
408.46316575805429
 21
79.325216542174644
 31
0.0
  0
LINE
  5
1B2
  8
0
 10
443.22994953867959
 20
90.379326738135319
 30
0.0
 11
443.22994953867959
 21
79.325216542174644
 31
0.0
  0
LINE
  5
1B3
  8
0
 10
473.25580706682052
 20
90.379326738135319
 30
0.0
 11
473.25580706682052
 21
79.325216542174644
 31
0.0
  0
LINE
  5
1B4
  8
0
 10
508.02258909992742
 20
90.379326738135319
 30
0.0
 11
508.02258909992742
 21
79.325216542174644
 31
0.0
  0
LINE
  5
1B5
  8
0
 10
539.62875537889647
 20
90.379326738135319
 30
0.0
 11
539.62875537889647
 21
79.325216542174644
 31
0.0
  0
LINE
  5
1B6
  8
0
 10
539.62875537889647
 20
317.77817199118681
 30
0.0
 11
549.11060613634629
 21
317.77817199118681
 31
0.0
  0
LINE
  5
1B7
  8
0
 10
539.62875537889647
 20
290.93247550584118
 30
0.0
 11
549.11060613634629
 21
290.93247550584118
 31
0.0
  0
LINE
  5
1B8
  8
0
 10
539.62875537889647
 20
260.92846093618459
 30
0.0
 11
549.11060613634629
 21
260.92846093618459
 31
0.0
  0
LINE
  5
1B9
  8
0
 10
539.62875537889647
 20
241.97855656248859
 30
0.0
 11
549.11060613634629
 21
241.97855656248859
 31
0.0
  0
LINE
  5
1BA
  8
0
 10
539.62875537889647
 20
215.13286007714319
 30
0.0
 11
549.11060613634629
 21
215.13286007714319
 31
0.0
  0
LINE
  5
1BB
  8
0
 10
539.62875537889647
 20
189.86632160091031
 30
0.0
 11
549.11060613634629
 21
189.86632160091031
 31
0.0
  0
LINE
  5
1BC
  8
0
 10
539.62875537889647
 20
164.59978312467771
 30
0.0
 11
549.11060613634629
 21
164.59978312467771
 31
0.0
  0
LINE
  5
1BD
  8
0
 10
539.62875537889647
 20
137.75408560628941
 30
0.0
 11
549.11060613634629
 21
137.75408560628941
 31
0.0
  0
LINE
  5
1BE
  8
0
 10
539.62875537889647
 20
118.8041822656364
 30
0.0
 11
549.11060613634629
 21
118.8041822656364
 31
0.0
  0
LINE
  5
1BF
  8
0
 10
539.62875537889647
 20
90.379326738135319
 30
0.0
 11
549.11060613634629
 21
90.379326738135319
 31
0.0
  0
LINE
  5
1EA
  8
0
 10
177.73815104782079
 20
90.379326738135319
 30
0.0
 11
191.96092631023649
 21
90.379326738135319
 31
0.0
  0
LINE
  5
1EB
  8
0
 10
191.96092631023649
 20
90.379326738135319
 30
0.0
 11
218.8261680842399
 21
90.379326738135319
 31
0.0
  0
LINE
  5
1EC
  8
0
 10
218.8261680842399
 20
90.379326738135319
 30
0.0
 11
253.59295011734679
 21
90.379326738135319
 31
0.0
  0
LINE
  5
1ED
  8
0
 10
253.59295011734679
 20
90.379326738135319
 30
0.0
 11
294.68096715376572
 21
90.379326738135319
 31
0.0
  0
LINE
  5
1EE
  8
0
 10
294.68096715376572
 20
90.379326738135319
 30
0.0
 11
332.60836668852852
 21
90.379326738135319
 31
0.0
  0
LINE
  5
1EF
  8
0
 10
332.60836668852852
 20
90.379326738135319
 30
0.0
 11
380.01761698074142
 21
90.379326738135319
 31
0.0
  0
LINE
  5
1F0
  8
0
 10
380.01761698074142
 20
90.379326738135319
 30
0.0
 11
408.46316575805429
 21
90.379326738135319
 31
0.0
  0
LINE
  5
1F1
  8
0
 10
408.46316575805429
 20
90.379326738135319
 30
0.0
 11
443.22994953867959
 21
90.379326738135319
 31
0.0
  0
LINE
  5
1F2
  8
0
 10
443.22994953867959
 20
90.379326738135319
 30
0.0
 11
473.25580706682052
 21
90.379326738135319
 31
0.0
  0
LINE
  5
1F3
  8
0
 10
473.25580706682052
 20
90.379326738135319
 30
0.0
 11
508.02258909992742
 21
90.379326738135319
 31
0.0
  0
LINE
  5
1F4
  8
0
 10
508.02258909992742
 20
90.379326738135319
 30
0.0
 11
539.62875537889647
 21
90.379326738135319
 31
0.0
  0
LINE
  5
1F5
  8
0
 10
177.73815104782079
 20
118.8041822656364
 30
0.0
 11
191.96092631023649
 21
118.8041822656364
 31
0.0
  0
LINE
  5
1F6
  8
0
 10
191.96092631023649
 20
118.8041822656364
 30
0.0
 11
218.8261680842399
 21
118.8041822656364
 31
0.0
  0
LINE
  5
1F7
  8
0
 10
218.8261680842399
 20
118.8041822656364
 30
0.0
 11
253.59295011734679
 21
118.8041822656364
 31
0.0
  0
LINE
  5
1F8
  8
0
 10
253.59295011734679
 20
118.8041822656364
 30
0.0
 11
294.68096715376572
 21
118.8041822656364
 31
0.0
  0
LINE
  5
1F9
  8
0
 10
294.68096715376572
 20
118.8041822656364
 30
0.0
 11
332.60836668852852
 21
118.8041822656364
 31
0.0
  0
LINE
  5
1FA
  8
0
 10
332.60836668852852
 20
118.8041822656364
 30
0.0
 11
380.01761698074142
 21
118.8041822656364
 31
0.0
  0
LINE
  5
1FB
  8
0
 10
380.01761698074142
 20
118.8041822656364
 30
0.0
 11
408.46316575805429
 21
118.8041822656364
 31
0.0
  0
LINE
  5
1FC
  8
0
 10
408.46316575805429
 20
118.8041822656364
 30
0.0
 11
443.22994953867959
 21
118.8041822656364
 31
0.0
  0
LINE
  5
1FD
  8
0
 10
443.22994953867959
 20
118.8041822656364
 30
0.0
 11
473.25580706682052
 21
118.8041822656364
 31
0.0
  0
LINE
  5
1FE
  8
0
 10
473.25580706682052
 20
118.8041822656364
 30
0.0
 11
508.02258909992742
 21
118.8041822656364
 31
0.0
  0
LINE
  5
1FF
  8
0
 10
508.02258909992742
 20
118.8041822656364
 30
0.0
 11
539.62875537889647
 21
118.8041822656364
 31
0.0
  0
LINE
  5
200
  8
0
 10
177.73815104782079
 20
137.75408560628941
 30
0.0
 11
191.96092631023649
 21
137.75408560628941
 31
0.0
  0
LINE
  5
201
  8
0
 10
191.96092631023649
 20
137.75408560628941
 30
0.0
 11
218.8261680842399
 21
137.75408560628941
 31
0.0
  0
LINE
  5
202
  8
0
 10
218.8261680842399
 20
137.75408560628941
 30
0.0
 11
253.59295011734679
 21
137.75408560628941
 31
0.0
  0
LINE
  5
203
  8
0
 10
253.59295011734679
 20
137.75408560628941
 30
0.0
 11
294.68096715376572
 21
137.75408560628941
 31
0.0
  0
LINE
  5
204
  8
0
 10
294.68096715376572
 20
137.75408560628941
 30
0.0
 11
332.60836668852852
 21
137.75408560628941
 31
0.0
  0
LINE
  5
205
  8
0
 10
332.60836668852852
 20
137.75408560628941
 30
0.0
 11
380.01761698074142
 21
137.75408560628941
 31
0.0
  0
LINE
  5
206
  8
0
 10
380.01761698074142
 20
137.75408560628941
 30
0.0
 11
408.46316575805429
 21
137.75408560628941
 31
0.0
  0
LINE
  5
207
  8
0
 10
408.46316575805429
 20
137.75408560628941
 30
0.0
 11
443.22994953867959
 21
137.75408560628941
 31
0.0
  0
LINE
  5
208
  8
0
 10
443.22994953867959
 20
137.75408560628941
 30
0.0
 11
473.25580706682052
 21
137.75408560628941
 31
0.0
  0
LINE
  5
209
  8
0
 10
473.25580706682052
 20
137.75408560628941
 30
0.0
 11
508.02258909992742
 21
137.75408560628941
 31
0.0
  0
LINE
  5
20A
  8
0
 10
508.02258909992742
 20
137.75408560628941
 30
0.0
 11
539.62875537889647
 21
137.75408560628941
 31
0.0
  0
LINE
  5
20B
  8
0
 10
177.73815104782079
 20
164.59978312467771
 30
0.0
 11
191.96092631023649
 21
164.59978312467771
 31
0.0
  0
LINE
  5
20C
  8
0
 10
191.96092631023649
 20
164.59978312467771
 30
0.0
 11
218.8261680842399
 21
164.59978312467771
 31
0.0
  0
LINE
  5
20D
  8
0
 10
218.8261680842399
 20
164.59978312467771
 30
0.0
 11
253.59295011734679
 21
164.59978312467771
 31
0.0
  0
LINE
  5
20E
  8
0
 10
253.59295011734679
 20
164.59978312467771
 30
0.0
 11
294.68096715376572
 21
164.59978312467771
 31
0.0
  0
LINE
  5
20F
  8
0
 10
294.68096715376572
 20
164.59978312467771
 30
0.0
 11
332.60836668852852
 21
164.59978312467771
 31
0.0
  0
LINE
  5
210
  8
0
 10
332.60836668852852
 20
164.59978312467771
 30
0.0
 11
380.01761698074142
 21
164.59978312467771
 31
0.0
  0
LINE
  5
211
  8
0
 10
380.01761698074142
 20
164.59978312467771
 30
0.0
 11
408.46316575805429
 21
164.59978312467771
 31
0.0
  0
LINE
  5
212
  8
0
 10
408.46316575805429
 20
164.59978312467771
 30
0.0
 11
443.22994953867959
 21
164.59978312467771
 31
0.0
  0
LINE
  5
213
  8
0
 10
443.22994953867959
 20
164.59978312467771
 30
0.0
 11
473.25580706682052
 21
164.59978312467771
 31
0.0
  0
LINE
  5
214
  8
0
 10
473.25580706682052
 20
164.59978312467771
 30
0.0
 11
508.02258909992742
 21
164.59978312467771
 31
0.0
  0
LINE
  5
215
  8
0
 10
508.02258909992742
 20
164.59978312467771
 30
0.0
 11
539.62875537889647
 21
164.59978312467771
 31
0.0
  0
LINE
  5
216
  8
0
 10
177.73815104782079
 20
189.86632160091031
 30
0.0
 11
191.96092631023649
 21
189.86632160091031
 31
0.0
  0
LINE
  5
217
  8
0
 10
191.96092631023649
 20
189.86632160091031
 30
0.0
 11
218.8261680842399
 21
189.86632160091031
 31
0.0
  0
LINE
  5
218
  8
0
 10
218.8261680842399
 20
189.86632160091031
 30
0.0
 11
253.59295011734679
 21
189.86632160091031
 31
0.0
  0
LINE
  5
219
  8
0
 10
253.59295011734679
 20
189.86632160091031
 30
0.0
 11
294.68096715376572
 21
189.86632160091031
 31
0.0
  0
LINE
  5
21A
  8
0
 10
294.68096715376572
 20
189.86632160091031
 30
0.0
 11
332.60836668852852
 21
189.86632160091031
 31
0.0
  0
LINE
  5
21B
  8
0
 10
332.60836668852852
 20
189.86632160091031
 30
0.0
 11
380.01761698074142
 21
189.86632160091031
 31
0.0
  0
LINE
  5
21C
  8
0
 10
380.01761698074142
 20
189.86632160091031
 30
0.0
 11
408.46316575805429
 21
189.86632160091031
 31
0.0
  0
LINE
  5
21D
  8
0
 10
408.46316575805429
 20
189.86632160091031
 30
0.0
 11
443.22994953867959
 21
189.86632160091031
 31
0.0
  0
LINE
  5
21E
  8
0
 10
443.22994953867959
 20
189.86632160091031
 30
0.0
 11
473.25580706682052
 21
189.86632160091031
 31
0.0
  0
LINE
  5
21F
  8
0
 10
473.25580706682052
 20
189.86632160091031
 30
0.0
 11
508.02258909992742
 21
189.86632160091031
 31
0.0
  0
LINE
  5
220
  8
0
 10
508.02258909992742
 20
189.86632160091031
 30
0.0
 11
539.62875537889647
 21
189.86632160091031
 31
0.0
  0
LINE
  5
221
  8
0
 10
177.73815104782079
 20
215.13286007714319
 30
0.0
 11
191.96092631023649
 21
215.13286007714319
 31
0.0
  0
LINE
  5
222
  8
0
 10
191.96092631023649
 20
215.13286007714319
 30
0.0
 11
218.8261680842399
 21
215.13286007714319
 31
0.0
  0
LINE
  5
223
  8
0
 10
218.8261680842399
 20
215.13286007714319
 30
0.0
 11
253.59295011734679
 21
215.13286007714319
 31
0.0
  0
LINE
  5
224
  8
0
 10
253.59295011734679
 20
215.13286007714319
 30
0.0
 11
294.68096715376572
 21
215.13286007714319
 31
0.0
  0
LINE
  5
225
  8
0
 10
294.68096715376572
 20
215.13286007714319
 30
0.0
 11
332.60836668852852
 21
215.13286007714319
 31
0.0
  0
LINE
  5
226
  8
0
 10
332.60836668852852
 20
215.13286007714319
 30
0.0
 11
380.01761698074142
 21
215.13286007714319
 31
0.0
  0
LINE
  5
227
  8
0
 10
380.01761698074142
 20
215.13286007714319
 30
0.0
 11
408.46316575805429
 21
215.13286007714319
 31
0.0
  0
LINE
  5
228
  8
0
 10
408.46316575805429
 20
215.13286007714319
 30
0.0
 11
443.22994953867959
 21
215.13286007714319
 31
0.0
  0
LINE
  5
229
  8
0
 10
443.22994953867959
 20
215.13286007714319
 30
0.0
 11
473.25580706682052
 21
215.13286007714319
 31
0.0
  0
LINE
  5
22A
  8
0
 10
473.25580706682052
 20
215.13286007714319
 30
0.0
 11
508.02258909992742
 21
215.13286007714319
 31
0.0
  0
LINE
  5
22B
  8
0
 10
508.02258909992742
 20
215.13286007714319
 30
0.0
 11
539.62875537889647
 21
215.13286007714319
 31
0.0
  0
LINE
  5
22C
  8
0
 10
177.73815104782079
 20
241.97855656248859
 30
0.0
 11
191.96092631023649
 21
241.97855656248859
 31
0.0
  0
LINE
  5
22D
  8
0
 10
191.96092631023649
 20
241.97855656248859
 30
0.0
 11
218.8261680842399
 21
241.97855656248859
 31
0.0
  0
LINE
  5
22E
  8
0
 10
218.8261680842399
 20
241.97855656248859
 30
0.0
 11
253.59295011734679
 21
241.97855656248859
 31
0.0
  0
LINE
  5
22F
  8
0
 10
253.59295011734679
 20
241.97855656248859
 30
0.0
 11
294.68096715376572
 21
241.97855656248859
 31
0.0
  0
LINE
  5
230
  8
0
 10
294.68096715376572
 20
241.97855656248859
 30
0.0
 11
332.60836668852852
 21
241.97855656248859
 31
0.0
  0
LINE
  5
231
  8
0
 10
332.60836668852852
 20
241.97855656248859
 30
0.0
 11
380.01761698074142
 21
241.97855656248859
 31
0.0
  0
LINE
  5
232
  8
0
 10
380.01761698074142
 20
241.97855656248859
 30
0.0
 11
408.46316575805429
 21
241.97855656248859
 31
0.0
  0
LINE
  5
233
  8
0
 10
408.46316575805429
 20
241.97855656248859
 30
0.0
 11
443.22994953867959
 21
241.97855656248859
 31
0.0
  0
LINE
  5
234
  8
0
 10
443.22994953867959
 20
241.97855656248859
 30
0.0
 11
473.25580706682052
 21
241.97855656248859
 31
0.0
  0
LINE
  5
235
  8
0
 10
473.25580706682052
 20
241.97855656248859
 30
0.0
 11
508.02258909992742
 21
241.97855656248859
 31
0.0
  0
LINE
  5
236
  8
0
 10
508.02258909992742
 20
241.97855656248859
 30
0.0
 11
539.62875537889647
 21
241.97855656248859
 31
0.0
  0
LINE
  5
237
  8
0
 10
177.73815104782079
 20
260.92846093618459
 30
0.0
 11
191.96092631023649
 21
260.92846093618459
 31
0.0
  0
LINE
  5
238
  8
0
 10
191.96092631023649
 20
260.92846093618459
 30
0.0
 11
218.8261680842399
 21
260.92846093618459
 31
0.0
  0
LINE
  5
239
  8
0
 10
218.8261680842399
 20
260.92846093618459
 30
0.0
 11
253.59295011734679
 21
260.92846093618459
 31
0.0
  0
LINE
  5
23A
  8
0
 10
253.59295011734679
 20
260.92846093618459
 30
0.0
 11
294.68096715376572
 21
260.92846093618459
 31
0.0
  0
LINE
  5
23B
  8
0
 10
294.68096715376572
 20
260.92846093618459
 30
0.0
 11
332.60836668852852
 21
260.92846093618459
 31
0.0
  0
LINE
  5
23C
  8
0
 10
332.60836668852852
 20
260.92846093618459
 30
0.0
 11
380.01761698074142
 21
260.92846093618459
 31
0.0
  0
LINE
  5
23D
  8
0
 10
380.01761698074142
 20
260.92846093618459
 30
0.0
 11
408.46316575805429
 21
260.92846093618459
 31
0.0
  0
LINE
  5
23E
  8
0
 10
408.46316575805429
 20
260.92846093618459
 30
0.0
 11
443.22994953867959
 21
260.92846093618459
 31
0.0
  0
LINE
  5
23F
  8
0
 10
443.22994953867959
 20
260.92846093618459
 30
0.0
 11
473.25580706682052
 21
260.92846093618459
 31
0.0
  0
LINE
  5
240
  8
0
 10
473.25580706682052
 20
260.92846093618459
 30
0.0
 11
508.02258909992742
 21
260.92846093618459
 31
0.0
  0
LINE
  5
241
  8
0
 10
508.02258909992742
 20
260.92846093618459
 30
0.0
 11
539.62875537889647
 21
260.92846093618459
 31
0.0
  0
LINE
  5
242
  8
0
 10
177.73815104782079
 20
290.93247550584118
 30
0.0
 11
191.96092631023649
 21
290.93247550584118
 31
0.0
  0
LINE
  5
243
  8
0
 10
191.96092631023649
 20
290.93247550584118
 30
0.0
 11
218.8261680842399
 21
290.93247550584118
 31
0.0
  0
LINE
  5
244
  8
0
 10
218.8261680842399
 20
290.93247550584118
 30
0.0
 11
253.59295011734679
 21
290.93247550584118
 31
0.0
  0
LINE
  5
245
  8
0
 10
253.59295011734679
 20
290.93247550584118
 30
0.0
 11
294.68096715376572
 21
290.93247550584118
 31
0.0
  0
LINE
  5
246
  8
0
 10
294.68096715376572
 20
290.93247550584118
 30
0.0
 11
332.60836668852852
 21
290.93247550584118
 31
0.0
  0
LINE
  5
247
  8
0
 10
332.60836668852852
 20
290.93247550584118
 30
0.0
 11
380.01761698074142
 21
290.93247550584118
 31
0.0
  0
LINE
  5
248
  8
0
 10
380.01761698074142
 20
290.93247550584118
 30
0.0
 11
408.46316575805429
 21
290.93247550584118
 31
0.0
  0
LINE
  5
249
  8
0
 10
408.46316575805429
 20
290.93247550584118
 30
0.0
 11
443.22994953867959
 21
290.93247550584118
 31
0.0
  0
LINE
  5
24A
  8
0
 10
443.22994953867959
 20
290.93247550584118
 30
0.0
 11
473.25580706682052
 21
290.93247550584118
 31
0.0
  0
LINE
  5
24B
  8
0
 10
473.25580706682052
 20
290.93247550584118
 30
0.0
 11
508.02258909992742
 21
290.93247550584118
 31
0.0
  0
LINE
  5
24C
  8
0
 10
508.02258909992742
 20
290.93247550584118
 30
0.0
 11
539.62875537889647
 21
290.93247550584118
 31
0.0
  0
LINE
  5
24D
  8
0
 10
177.73815104782079
 20
317.77817199118681
 30
0.0
 11
191.96092631023649
 21
317.77817199118681
 31
0.0
  0
LINE
  5
24E
  8
0
 10
191.96092631023649
 20
317.77817199118681
 30
0.0
 11
218.8261680842399
 21
317.77817199118681
 31
0.0
  0
LINE
  5
24F
  8
0
 10
218.8261680842399
 20
317.77817199118681
 30
0.0
 11
253.59295011734679
 21
317.77817199118681
 31
0.0
  0
LINE
  5
250
  8
0
 10
253.59295011734679
 20
317.77817199118681
 30
0.0
 11
294.68096715376572
 21
317.77817199118681
 31
0.0
  0
LINE
  5
251
  8
0
 10
294.68096715376572
 20
317.77817199118681
 30
0.0
 11
332.60836668852852
 21
317.77817199118681
 31
0.0
  0
LINE
  5
252
  8
0
 10
332.60836668852852
 20
317.77817199118681
 30
0.0
 11
380.01761698074142
 21
317.77817199118681
 31
0.0
  0
LINE
  5
253
  8
0
 10
380.01761698074142
 20
317.77817199118681
 30
0.0
 11
408.46316575805429
 21
317.77817199118681
 31
0.0
  0
LINE
  5
254
  8
0
 10
408.46316575805429
 20
317.77817199118681
 30
0.0
 11
443.22994953867959
 21
317.77817199118681
 31
0.0
  0
LINE
  5
255
  8
0
 10
443.22994953867959
 20
317.77817199118681
 30
0.0
 11
473.25580706682052
 21
317.77817199118681
 31
0.0
  0
LINE
  5
256
  8
0
 10
473.25580706682052
 20
317.77817199118681
 30
0.0
 11
508.02258909992742
 21
317.77817199118681
 31
0.0
  0
LINE
  5
257
  8
0
 10
508.02258909992742
 20
317.77817199118681
 30
0.0
 11
539.62875537889647
 21
317.77817199118681
 31
0.0
  0
LINE
  5
258
  8
0
 10
539.62875537889647
 20
347.7821865608434
 30
0.0
 11
539.62875537889647
 21
339.88639341615112
 31
0.0
  0
LINE
  5
259
  8
0
 10
539.62875537889647
 20
339.88639341615112
 30
0.0
 11
539.62875537889647
 21
317.77817199118681
 31
0.0
  0
LINE
  5
25A
  8
0
 10
539.62875537889647
 20
317.77817199118681
 30
0.0
 11
539.62875537889647
 21
290.93247550584118
 31
0.0
  0
LINE
  5
25B
  8
0
 10
539.62875537889647
 20
290.93247550584118
 30
0.0
 11
539.62875537889647
 21
260.92846093618459
 31
0.0
  0
LINE
  5
25C
  8
0
 10
539.62875537889647
 20
260.92846093618459
 30
0.0
 11
539.62875537889647
 21
241.97855656248859
 31
0.0
  0
LINE
  5
25D
  8
0
 10
539.62875537889647
 20
241.97855656248859
 30
0.0
 11
539.62875537889647
 21
215.13286007714319
 31
0.0
  0
LINE
  5
25E
  8
0
 10
539.62875537889647
 20
215.13286007714319
 30
0.0
 11
539.62875537889647
 21
189.86632160091031
 31
0.0
  0
LINE
  5
25F
  8
0
 10
539.62875537889647
 20
189.86632160091031
 30
0.0
 11
539.62875537889647
 21
164.59978312467771
 31
0.0
  0
LINE
  5
260
  8
0
 10
539.62875537889647
 20
164.59978312467771
 30
0.0
 11
539.62875537889647
 21
137.75408560628941
 31
0.0
  0
LINE
  5
261
  8
0
 10
539.62875537889647
 20
137.75408560628941
 30
0.0
 11
539.62875537889647
 21
118.8041822656364
 31
0.0
  0
LINE
  5
262
  8
0
 10
539.62875537889647
 20
118.8041822656364
 30
0.0
 11
539.62875537889647
 21
90.379326738135319
 31
0.0
  0
LINE
  5
263
  8
0
 10
508.02258909992742
 20
347.7821865608434
 30
0.0
 11
508.02258909992742
 21
339.88639341615112
 31
0.0
  0
LINE
  5
264
  8
0
 10
508.02258909992742
 20
339.88639341615112
 30
0.0
 11
508.02258909992742
 21
317.77817199118681
 31
0.0
  0
LINE
  5
265
  8
0
 10
508.02258909992742
 20
317.77817199118681
 30
0.0
 11
508.02258909992742
 21
290.93247550584118
 31
0.0
  0
LINE
  5
266
  8
0
 10
508.02258909992742
 20
290.93247550584118
 30
0.0
 11
508.02258909992742
 21
260.92846093618459
 31
0.0
  0
LINE
  5
267
  8
0
 10
508.02258909992742
 20
260.92846093618459
 30
0.0
 11
508.02258909992742
 21
241.97855656248859
 31
0.0
  0
LINE
  5
268
  8
0
 10
508.02258909992742
 20
241.97855656248859
 30
0.0
 11
508.02258909992742
 21
215.13286007714319
 31
0.0
  0
LINE
  5
269
  8
0
 10
508.02258909992742
 20
215.13286007714319
 30
0.0
 11
508.02258909992742
 21
189.86632160091031
 31
0.0
  0
LINE
  5
26A
  8
0
 10
508.02258909992742
 20
189.86632160091031
 30
0.0
 11
508.02258909992742
 21
164.59978312467771
 31
0.0
  0
LINE
  5
26B
  8
0
 10
508.02258909992742
 20
164.59978312467771
 30
0.0
 11
508.02258909992742
 21
137.75408560628941
 31
0.0
  0
LINE
  5
26C
  8
0
 10
508.02258909992742
 20
137.75408560628941
 30
0.0
 11
508.02258909992742
 21
118.8041822656364
 31
0.0
  0
LINE
  5
26D
  8
0
 10
508.02258909992742
 20
118.8041822656364
 30
0.0
 11
508.02258909992742
 21
90.379326738135319
 31
0.0
  0
LINE
  5
26E
  8
0
 10
473.25580706682052
 20
347.7821865608434
 30
0.0
 11
473.25580706682052
 21
339.88639341615112
 31
0.0
  0
LINE
  5
26F
  8
0
 10
473.25580706682052
 20
339.88639341615112
 30
0.0
 11
473.25580706682052
 21
317.77817199118681
 31
0.0
  0
LINE
  5
270
  8
0
 10
473.25580706682052
 20
317.77817199118681
 30
0.0
 11
473.25580706682052
 21
290.93247550584118
 31
0.0
  0
LINE
  5
271
  8
0
 10
473.25580706682052
 20
290.93247550584118
 30
0.0
 11
473.25580706682052
 21
260.92846093618459
 31
0.0
  0
LINE
  5
272
  8
0
 10
473.25580706682052
 20
260.92846093618459
 30
0.0
 11
473.25580706682052
 21
241.97855656248859
 31
0.0
  0
LINE
  5
273
  8
0
 10
473.25580706682052
 20
241.97855656248859
 30
0.0
 11
473.25580706682052
 21
215.13286007714319
 31
0.0
  0
LINE
  5
274
  8
0
 10
473.25580706682052
 20
215.13286007714319
 30
0.0
 11
473.25580706682052
 21
189.86632160091031
 31
0.0
  0
LINE
  5
275
  8
0
 10
473.25580706682052
 20
189.86632160091031
 30
0.0
 11
473.25580706682052
 21
164.59978312467771
 31
0.0
  0
LINE
  5
276
  8
0
 10
473.25580706682052
 20
164.59978312467771
 30
0.0
 11
473.25580706682052
 21
137.75408560628941
 31
0.0
  0
LINE
  5
277
  8
0
 10
473.25580706682052
 20
137.75408560628941
 30
0.0
 11
473.25580706682052
 21
118.8041822656364
 31
0.0
  0
LINE
  5
278
  8
0
 10
473.25580706682052
 20
118.8041822656364
 30
0.0
 11
473.25580706682052
 21
90.379326738135319
 31
0.0
  0
LINE
  5
279
  8
0
 10
443.22994953867959
 20
347.7821865608434
 30
0.0
 11
443.22994953867959
 21
339.88639341615112
 31
0.0
  0
LINE
  5
27A
  8
0
 10
443.22994953867959
 20
339.88639341615112
 30
0.0
 11
443.22994953867959
 21
317.77817199118681
 31
0.0
  0
LINE
  5
27B
  8
0
 10
443.22994953867959
 20
317.77817199118681
 30
0.0
 11
443.22994953867959
 21
290.93247550584118
 31
0.0
  0
LINE
  5
27C
  8
0
 10
443.22994953867959
 20
290.93247550584118
 30
0.0
 11
443.22994953867959
 21
260.92846093618459
 31
0.0
  0
LINE
  5
27D
  8
0
 10
443.22994953867959
 20
260.92846093618459
 30
0.0
 11
443.22994953867959
 21
241.97855656248859
 31
0.0
  0
LINE
  5
27E
  8
0
 10
443.22994953867959
 20
241.97855656248859
 30
0.0
 11
443.22994953867959
 21
215.13286007714319
 31
0.0
  0
LINE
  5
27F
  8
0
 10
443.22994953867959
 20
215.13286007714319
 30
0.0
 11
443.22994953867959
 21
189.86632160091031
 31
0.0
  0
LINE
  5
280
  8
0
 10
443.22994953867959
 20
189.86632160091031
 30
0.0
 11
443.22994953867959
 21
164.59978312467771
 31
0.0
  0
LINE
  5
281
  8
0
 10
443.22994953867959
 20
164.59978312467771
 30
0.0
 11
443.22994953867959
 21
137.75408560628941
 31
0.0
  0
LINE
  5
282
  8
0
 10
443.22994953867959
 20
137.75408560628941
 30
0.0
 11
443.22994953867959
 21
118.8041822656364
 31
0.0
  0
LINE
  5
283
  8
0
 10
443.22994953867959
 20
118.8041822656364
 30
0.0
 11
443.22994953867959
 21
90.379326738135319
 31
0.0
  0
LINE
  5
284
  8
0
 10
408.46316575805429
 20
347.7821865608434
 30
0.0
 11
408.46316575805429
 21
339.88639341615112
 31
0.0
  0
LINE
  5
285
  8
0
 10
408.46316575805429
 20
339.88639341615112
 30
0.0
 11
408.46316575805429
 21
317.77817199118681
 31
0.0
  0
LINE
  5
286
  8
0
 10
408.46316575805429
 20
317.77817199118681
 30
0.0
 11
408.46316575805429
 21
290.93247550584118
 31
0.0
  0
LINE
  5
287
  8
0
 10
408.46316575805429
 20
290.93247550584118
 30
0.0
 11
408.46316575805429
 21
260.92846093618459
 31
0.0
  0
LINE
  5
288
  8
0
 10
408.46316575805429
 20
260.92846093618459
 30
0.0
 11
408.46316575805429
 21
241.97855656248859
 31
0.0
  0
LINE
  5
289
  8
0
 10
408.46316575805429
 20
241.97855656248859
 30
0.0
 11
408.46316575805429
 21
215.13286007714319
 31
0.0
  0
LINE
  5
28A
  8
0
 10
408.46316575805429
 20
215.13286007714319
 30
0.0
 11
408.46316575805429
 21
189.86632160091031
 31
0.0
  0
LINE
  5
28B
  8
0
 10
408.46316575805429
 20
189.86632160091031
 30
0.0
 11
408.46316575805429
 21
164.59978312467771
 31
0.0
  0
LINE
  5
28C
  8
0
 10
408.46316575805429
 20
164.59978312467771
 30
0.0
 11
408.46316575805429
 21
137.75408560628941
 31
0.0
  0
LINE
  5
28D
  8
0
 10
408.46316575805429
 20
137.75408560628941
 30
0.0
 11
408.46316575805429
 21
118.8041822656364
 31
0.0
  0
LINE
  5
28E
  8
0
 10
408.46316575805429
 20
118.8041822656364
 30
0.0
 11
408.46316575805429
 21
90.379326738135319
 31
0.0
  0
LINE
  5
28F
  8
0
 10
380.01761698074142
 20
347.7821865608434
 30
0.0
 11
380.01761698074142
 21
339.88639341615112
 31
0.0
  0
LINE
  5
290
  8
0
 10
380.01761698074142
 20
339.88639341615112
 30
0.0
 11
380.01761698074142
 21
317.77817199118681
 31
0.0
  0
LINE
  5
291
  8
0
 10
380.01761698074142
 20
317.77817199118681
 30
0.0
 11
380.01761698074142
 21
290.93247550584118
 31
0.0
  0
LINE
  5
292
  8
0
 10
380.01761698074142
 20
290.93247550584118
 30
0.0
 11
380.01761698074142
 21
260.92846093618459
 31
0.0
  0
LINE
  5
293
  8
0
 10
380.01761698074142
 20
260.92846093618459
 30
0.0
 11
380.01761698074142
 21
241.97855656248859
 31
0.0
  0
LINE
  5
294
  8
0
 10
380.01761698074142
 20
241.97855656248859
 30
0.0
 11
380.01761698074142
 21
215.13286007714319
 31
0.0
  0
LINE
  5
295
  8
0
 10
380.01761698074142
 20
215.13286007714319
 30
0.0
 11
380.01761698074142
 21
189.86632160091031
 31
0.0
  0
LINE
  5
296
  8
0
 10
380.01761698074142
 20
189.86632160091031
 30
0.0
 11
380.01761698074142
 21
164.59978312467771
 31
0.0
  0
LINE
  5
297
  8
0
 10
380.01761698074142
 20
164.59978312467771
 30
0.0
 11
380.01761698074142
 21
137.75408560628941
 31
0.0
  0
LINE
  5
298
  8
0
 10
380.01761698074142
 20
137.75408560628941
 30
0.0
 11
380.01761698074142
 21
118.8041822656364
 31
0.0
  0
LINE
  5
299
  8
0
 10
380.01761698074142
 20
118.8041822656364
 30
0.0
 11
380.01761698074142
 21
90.379326738135319
 31
0.0
  0
LINE
  5
29A
  8
0
 10
332.60836668852852
 20
347.7821865608434
 30
0.0
 11
332.60836668852852
 21
339.88639341615112
 31
0.0
  0
LINE
  5
29B
  8
0
 10
332.60836668852852
 20
339.88639341615112
 30
0.0
 11
332.60836668852852
 21
317.77817199118681
 31
0.0
  0
LINE
  5
29C
  8
0
 10
332.60836668852852
 20
317.77817199118681
 30
0.0
 11
332.60836668852852
 21
290.93247550584118
 31
0.0
  0
LINE
  5
29D
  8
0
 10
332.60836668852852
 20
290.93247550584118
 30
0.0
 11
332.60836668852852
 21
260.92846093618459
 31
0.0
  0
LINE
  5
29E
  8
0
 10
332.60836668852852
 20
260.92846093618459
 30
0.0
 11
332.60836668852852
 21
241.97855656248859
 31
0.0
  0
LINE
  5
29F
  8
0
 10
332.60836668852852
 20
241.97855656248859
 30
0.0
 11
332.60836668852852
 21
215.13286007714319
 31
0.0
  0
LINE
  5
2A0
  8
0
 10
332.60836668852852
 20
215.13286007714319
 30
0.0
 11
332.60836668852852
 21
189.86632160091031
 31
0.0
  0
LINE
  5
2A1
  8
0
 10
332.60836668852852
 20
189.86632160091031
 30
0.0
 11
332.60836668852852
 21
164.59978312467771
 31
0.0
  0
LINE
  5
2A2
  8
0
 10
332.60836668852852
 20
164.59978312467771
 30
0.0
 11
332.60836668852852
 21
137.75408560628941
 31
0.0
  0
LINE
  5
2A3
  8
0
 10
332.60836668852852
 20
137.75408560628941
 30
0.0
 11
332.60836668852852
 21
118.8041822656364
 31
0.0
  0
LINE
  5
2A4
  8
0
 10
332.60836668852852
 20
118.8041822656364
 30
0.0
 11
332.60836668852852
 21
90.379326738135319
 31
0.0
  0
LINE
  5
2A5
  8
0
 10
294.68096715376572
 20
347.7821865608434
 30
0.0
 11
294.68096715376572
 21
339.88639341615112
 31
0.0
  0
LINE
  5
2A6
  8
0
 10
294.68096715376572
 20
339.88639341615112
 30
0.0
 11
294.68096715376572
 21
317.77817199118681
 31
0.0
  0
LINE
  5
2A7
  8
0
 10
294.68096715376572
 20
317.77817199118681
 30
0.0
 11
294.68096715376572
 21
290.93247550584118
 31
0.0
  0
LINE
  5
2A8
  8
0
 10
294.68096715376572
 20
290.93247550584118
 30
0.0
 11
294.68096715376572
 21
260.92846093618459
 31
0.0
  0
LINE
  5
2A9
  8
0
 10
294.68096715376572
 20
260.92846093618459
 30
0.0
 11
294.68096715376572
 21
241.97855656248859
 31
0.0
  0
LINE
  5
2AA
  8
0
 10
294.68096715376572
 20
241.97855656248859
 30
0.0
 11
294.68096715376572
 21
215.13286007714319
 31
0.0
  0
LINE
  5
2AB
  8
0
 10
294.68096715376572
 20
215.13286007714319
 30
0.0
 11
294.68096715376572
 21
189.86632160091031
 31
0.0
  0
LINE
  5
2AC
  8
0
 10
294.68096715376572
 20
189.86632160091031
 30
0.0
 11
294.68096715376572
 21
164.59978312467771
 31
0.0
  0
LINE
  5
2AD
  8
0
 10
294.68096715376572
 20
164.59978312467771
 30
0.0
 11
294.68096715376572
 21
137.75408560628941
 31
0.0
  0
LINE
  5
2AE
  8
0
 10
294.68096715376572
 20
137.75408560628941
 30
0.0
 11
294.68096715376572
 21
118.8041822656364
 31
0.0
  0
LINE
  5
2AF
  8
0
 10
294.68096715376572
 20
118.8041822656364
 30
0.0
 11
294.68096715376572
 21
90.379326738135319
 31
0.0
  0
LINE
  5
2B0
  8
0
 10
253.59295011734679
 20
347.7821865608434
 30
0.0
 11
253.59295011734679
 21
339.88639341615112
 31
0.0
  0
LINE
  5
2B1
  8
0
 10
253.59295011734679
 20
339.88639341615112
 30
0.0
 11
253.59295011734679
 21
317.77817199118681
 31
0.0
  0
LINE
  5
2B2
  8
0
 10
253.59295011734679
 20
317.77817199118681
 30
0.0
 11
253.59295011734679
 21
290.93247550584118
 31
0.0
  0
LINE
  5
2B3
  8
0
 10
253.59295011734679
 20
290.93247550584118
 30
0.0
 11
253.59295011734679
 21
260.92846093618459
 31
0.0
  0
LINE
  5
2B4
  8
0
 10
253.59295011734679
 20
260.92846093618459
 30
0.0
 11
253.59295011734679
 21
241.97855656248859
 31
0.0
  0
LINE
  5
2B5
  8
0
 10
253.59295011734679
 20
241.97855656248859
 30
0.0
 11
253.59295011734679
 21
215.13286007714319
 31
0.0
  0
LINE
  5
2B6
  8
0
 10
253.59295011734679
 20
215.13286007714319
 30
0.0
 11
253.59295011734679
 21
189.86632160091031
 31
0.0
  0
LINE
  5
2B7
  8
0
 10
253.59295011734679
 20
189.86632160091031
 30
0.0
 11
253.59295011734679
 21
164.59978312467771
 31
0.0
  0
LINE
  5
2B8
  8
0
 10
253.59295011734679
 20
164.59978312467771
 30
0.0
 11
253.59295011734679
 21
137.75408560628941
 31
0.0
  0
LINE
  5
2B9
  8
0
 10
253.59295011734679
 20
137.75408560628941
 30
0.0
 11
253.59295011734679
 21
118.8041822656364
 31
0.0
  0
LINE
  5
2BA
  8
0
 10
253.59295011734679
 20
118.8041822656364
 30
0.0
 11
253.59295011734679
 21
90.379326738135319
 31
0.0
  0
LINE
  5
2BB
  8
0
 10
218.8261680842399
 20
347.7821865608434
 30
0.0
 11
218.8261680842399
 21
339.88639341615112
 31
0.0
  0
LINE
  5
2BC
  8
0
 10
218.8261680842399
 20
339.88639341615112
 30
0.0
 11
218.8261680842399
 21
317.77817199118681
 31
0.0
  0
LINE
  5
2BD
  8
0
 10
218.8261680842399
 20
317.77817199118681
 30
0.0
 11
218.8261680842399
 21
290.93247550584118
 31
0.0
  0
LINE
  5
2BE
  8
0
 10
218.8261680842399
 20
290.93247550584118
 30
0.0
 11
218.8261680842399
 21
260.92846093618459
 31
0.0
  0
LINE
  5
2BF
  8
0
 10
218.8261680842399
 20
260.92846093618459
 30
0.0
 11
218.8261680842399
 21
241.97855656248859
 31
0.0
  0
LINE
  5
2C0
  8
0
 10
218.8261680842399
 20
241.97855656248859
 30
0.0
 11
218.8261680842399
 21
215.13286007714319
 31
0.0
  0
LINE
  5
2C1
  8
0
 10
218.8261680842399
 20
215.13286007714319
 30
0.0
 11
218.8261680842399
 21
189.86632160091031
 31
0.0
  0
LINE
  5
2C2
  8
0
 10
218.8261680842399
 20
189.86632160091031
 30
0.0
 11
218.8261680842399
 21
164.59978312467771
 31
0.0
  0
LINE
  5
2C3
  8
0
 10
218.8261680842399
 20
164.59978312467771
 30
0.0
 11
218.8261680842399
 21
137.75408560628941
 31
0.0
  0
LINE
  5
2C4
  8
0
 10
218.8261680842399
 20
137.75408560628941
 30
0.0
 11
218.8261680842399
 21
118.8041822656364
 31
0.0
  0
LINE
  5
2C5
  8
0
 10
218.8261680842399
 20
118.8041822656364
 30
0.0
 11
218.8261680842399
 21
90.379326738135319
 31
0.0
  0
LINE
  5
2C6
  8
0
 10
191.96092631023649
 20
347.7821865608434
 30
0.0
 11
191.96092631023649
 21
339.88639341615112
 31
0.0
  0
LINE
  5
2C7
  8
0
 10
191.96092631023649
 20
339.88639341615112
 30
0.0
 11
191.96092631023649
 21
317.77817199118681
 31
0.0
  0
LINE
  5
2C8
  8
0
 10
191.96092631023649
 20
317.77817199118681
 30
0.0
 11
191.96092631023649
 21
290.93247550584118
 31
0.0
  0
LINE
  5
2C9
  8
0
 10
191.96092631023649
 20
290.93247550584118
 30
0.0
 11
191.96092631023649
 21
260.92846093618459
 31
0.0
  0
LINE
  5
2CA
  8
0
 10
191.96092631023649
 20
260.92846093618459
 30
0.0
 11
191.96092631023649
 21
241.97855656248859
 31
0.0
  0
LINE
  5
2CB
  8
0
 10
191.96092631023649
 20
241.97855656248859
 30
0.0
 11
191.96092631023649
 21
215.13286007714319
 31
0.0
  0
LINE
  5
2CC
  8
0
 10
191.96092631023649
 20
215.13286007714319
 30
0.0
 11
191.96092631023649
 21
189.86632160091031
 31
0.0
  0
LINE
  5
2CD
  8
0
 10
191.96092631023649
 20
189.86632160091031
 30
0.0
 11
191.96092631023649
 21
164.59978312467771
 31
0.0
  0
LINE
  5
2CE
  8
0
 10
191.96092631023649
 20
164.59978312467771
 30
0.0
 11
191.96092631023649
 21
137.75408560628941
 31
0.0
  0
LINE
  5
2CF
  8
0
 10
191.96092631023649
 20
137.75408560628941
 30
0.0
 11
191.96092631023649
 21
118.8041822656364
 31
0.0
  0
LINE
  5
2D0
  8
0
 10
191.96092631023649
 20
118.8041822656364
 30
0.0
 11
191.96092631023649
 21
90.379326738135319
 31
0.0
  0
LINE
  5
2D1
  8
0
 10
177.73815104782079
 20
339.88639341615112
 30
0.0
 11
191.96092631023649
 21
339.88639341615112
 31
0.0
  0
LINE
  5
2D2
  8
0
 10
191.96092631023649
 20
339.88639341615112
 30
0.0
 11
218.8261680842399
 21
339.88639341615112
 31
0.0
  0
LINE
  5
2D3
  8
0
 10
218.8261680842399
 20
339.88639341615112
 30
0.0
 11
253.59295011734679
 21
339.88639341615112
 31
0.0
  0
LINE
  5
2D4
  8
0
 10
253.59295011734679
 20
339.88639341615112
 30
0.0
 11
294.68096715376572
 21
339.88639341615112
 31
0.0
  0
LINE
  5
2D5
  8
0
 10
294.68096715376572
 20
339.88639341615112
 30
0.0
 11
332.60836668852852
 21
339.88639341615112
 31
0.0
  0
LINE
  5
2D6
  8
0
 10
332.60836668852852
 20
339.88639341615112
 30
0.0
 11
380.01761698074142
 21
339.88639341615112
 31
0.0
  0
LINE
  5
2D7
  8
0
 10
380.01761698074142
 20
339.88639341615112
 30
0.0
 11
408.46316575805429
 21
339.88639341615112
 31
0.0
  0
LINE
  5
2D8
  8
0
 10
408.46316575805429
 20
339.88639341615112
 30
0.0
 11
443.22994953867959
 21
339.88639341615112
 31
0.0
  0
LINE
  5
2D9
  8
0
 10
443.22994953867959
 20
339.88639341615112
 30
0.0
 11
473.25580706682052
 21
339.88639341615112
 31
0.0
  0
LINE
  5
2DA
  8
0
 10
473.25580706682052
 20
339.88639341615112
 30
0.0
 11
508.02258909992742
 21
339.88639341615112
 31
0.0
  0
LINE
  5
2DB
  8
0
 10
508.02258909992742
 20
339.88639341615112
 30
0.0
 11
539.62875537889647
 21
339.88639341615112
 31
0.0
  0
ENDSEC
  0
EOF
