/* XPM */
static char * iconeEndereco_xpm[] = {
"36 36 665 2",
"  	c None",
". 	c #C4C2DA",
"+ 	c #B2B2CC",
"@ 	c #B4B7CA",
"# 	c #B8BACF",
"$ 	c #BDBED0",
"% 	c #BEC0CD",
"& 	c #BDC0D1",
"* 	c #BBC0D3",
"= 	c #BFBED0",
"- 	c #BDBFCE",
"; 	c #BBC1D1",
"> 	c #BEBFD1",
", 	c #BEC1D0",
"' 	c #BCBFD0",
") 	c #C0BFCF",
"! 	c #C1BED1",
"~ 	c #BEC1D2",
"{ 	c #C4C7D6",
"] 	c #D1D4DD",
"^ 	c #C9C9E1",
"/ 	c #4A4391",
"( 	c #6B63B9",
"_ 	c #6766AA",
": 	c #6A6EAD",
"< 	c #7273A9",
"[ 	c #7376A1",
"} 	c #7377A4",
"| 	c #7173AC",
"1 	c #7173B0",
"2 	c #6F74AB",
"3 	c #6C77A5",
"4 	c #6D77A8",
"5 	c #6C76AB",
"6 	c #6F74AC",
"7 	c #7072AB",
"8 	c #6E73AA",
"9 	c #6F77A8",
"0 	c #7274A5",
"a 	c #7573A4",
"b 	c #7877B1",
"c 	c #666DB1",
"d 	c #37407B",
"e 	c #A4A8C5",
"f 	c #9799B0",
"g 	c #656696",
"h 	c #D9CED4",
"i 	c #D7D1D5",
"j 	c #D4CDD4",
"k 	c #D7D0D7",
"l 	c #C9BEC4",
"m 	c #E2DBE2",
"n 	c #CEC1CA",
"o 	c #CBBCC3",
"p 	c #DAD0D8",
"q 	c #D3CCD3",
"r 	c #D8CDD3",
"s 	c #D4C9D1",
"t 	c #C7B6BE",
"u 	c #D1C4CD",
"v 	c #E9E6EF",
"w 	c #E6E3EA",
"x 	c #DCD7DE",
"y 	c #C5B9BD",
"z 	c #D3CACF",
"A 	c #B3AFC8",
"B 	c #595B8E",
"C 	c #787B9A",
"D 	c #969AB5",
"E 	c #C8BAB9",
"F 	c #D1C7C6",
"G 	c #DAD1D2",
"H 	c #D4CACB",
"I 	c #C8B6B6",
"J 	c #C0ABAA",
"K 	c #C9B5B6",
"L 	c #D9CDCF",
"M 	c #DED2D4",
"N 	c #D7C8CB",
"O 	c #CFBCBE",
"P 	c #D2C0C0",
"Q 	c #E4DBDE",
"R 	c #EFEAEE",
"S 	c #F2EDF1",
"T 	c #E9DEE2",
"U 	c #D6CECC",
"V 	c #DAD2D0",
"W 	c #8C86A8",
"X 	c #848AAC",
"Y 	c #575888",
"Z 	c #B1A6AE",
"` 	c #E3DFE0",
" .	c #D9D1CF",
"..	c #D8D0CE",
"+.	c #CAB6B7",
"@.	c #CDB9BA",
"#.	c #C8B4B5",
"$.	c #D5C5C6",
"%.	c #D0C0C1",
"&.	c #D3C3C4",
"*.	c #E1D8D9",
"=.	c #F3EEF2",
"-.	c #E9E3E5",
";.	c #D2C2C5",
">.	c #F3EFF0",
",.	c #DBD2D3",
"'.	c #CABEBE",
").	c #5F619C",
"!.	c #B2BDD3",
"~.	c #D1CEE9",
"{.	c #4C4B8F",
"].	c #BEACAC",
"^.	c #EBEBED",
"/.	c #DDD7D7",
"(.	c #CEC0C0",
"_.	c #D6D1CE",
":.	c #D9D3D3",
"<.	c #C8B2B4",
"[.	c #CDB9BB",
"}.	c #E6DDDE",
"|.	c #F0EBEF",
"1.	c #E9E0E5",
"2.	c #D5C5C8",
"3.	c #CDBABC",
"4.	c #D7C9C9",
"5.	c #DACCCC",
"6.	c #F2F3F7",
"7.	c #D2C6C6",
"8.	c #CDC1C1",
"9.	c #525892",
"0.	c #D2DCF5",
"a.	c #B7B7D3",
"b.	c #5D5AA1",
"c.	c #C6B3B9",
"d.	c #E3DADB",
"e.	c #EEE9ED",
"f.	c #D1BEC0",
"g.	c #DED4D5",
"h.	c #DACBCE",
"i.	c #B89E9F",
"j.	c #E5DCDD",
"k.	c #E6E2E3",
"l.	c #D1C5C7",
"m.	c #CDBFBF",
"n.	c #DAD0D1",
"o.	c #D9D0D1",
"p.	c #CABCBB",
"q.	c #E1D6DC",
"r.	c #F0EEF1",
"s.	c #B5A9B7",
"t.	c #636399",
"u.	c #A9A8C7",
"v.	c #716EA7",
"w.	c #DCCDD2",
"x.	c #CCB9BB",
"y.	c #D2C2C3",
"z.	c #CEBCBC",
"A.	c #D2C3C8",
"B.	c #E7DEE1",
"C.	c #C6ADB0",
"D.	c #CCBCBD",
"E.	c #D3C9C8",
"F.	c #D8D2D4",
"G.	c #D7D1D1",
"H.	c #D8CECF",
"I.	c #DCD3D4",
"J.	c #CBB8BA",
"K.	c #ECE6EA",
"L.	c #A0A1B6",
"M.	c #78779F",
"N.	c #9596AB",
"O.	c #74739D",
"P.	c #BEB5B8",
"Q.	c #9E8589",
"R.	c #B5A8B1",
"S.	c #D6D3DC",
"T.	c #E2DCDE",
"U.	c #F4EDF4",
"V.	c #EAE1E6",
"W.	c #C2ACAE",
"X.	c #C5AFB1",
"Y.	c #D4C8C8",
"Z.	c #CFC5C4",
"`.	c #CBBDBC",
" +	c #D5CBCA",
".+	c #D8D2D2",
"++	c #D0BDBF",
"@+	c #9297AB",
"#+	c #7F85A5",
"$+	c #9C9C9A",
"%+	c #696A6F",
"&+	c #636479",
"*+	c #6E7178",
"=+	c #6F747A",
"-+	c #676A7D",
";+	c #6F778C",
">+	c #97A0B1",
",+	c #C1C1C9",
"'+	c #D2C3C0",
")+	c #DBCDCD",
"!+	c #CFC3C3",
"~+	c #D8CCCE",
"{+	c #E1DBDB",
"]+	c #F2F3F5",
"^+	c #C7BCBA",
"/+	c #DBCFCF",
"(+	c #D3C3C6",
"_+	c #908DAA",
":+	c #8387AA",
"<+	c #BBBABF",
"[+	c #6B6B69",
"}+	c #727270",
"|+	c #959796",
"1+	c #A2A3A7",
"2+	c #9AA2A4",
"3+	c #9DA3A1",
"4+	c #9BA29B",
"5+	c #8D8F8C",
"6+	c #687472",
"7+	c #6E8384",
"8+	c #B4BFBB",
"9+	c #DBCFD1",
"0+	c #C2AEAF",
"a+	c #F0EAEE",
"b+	c #EEEAEB",
"c+	c #E6DBDF",
"d+	c #D6CCCB",
"e+	c #D5CDCB",
"f+	c #D8D0CD",
"g+	c #DBD3D1",
"h+	c #8D8AA7",
"i+	c #8482A9",
"j+	c #B2B1B6",
"k+	c #646663",
"l+	c #8F928B",
"m+	c #A7AAA3",
"n+	c #85868A",
"o+	c #6E6E76",
"p+	c #6C6E7B",
"q+	c #6D747C",
"r+	c #737F75",
"s+	c #96988A",
"t+	c #A8AEA2",
"u+	c #77847A",
"v+	c #627965",
"w+	c #D0D0C8",
"x+	c #C4B0B1",
"y+	c #B0918F",
"z+	c #D6CACA",
"A+	c #CEBEBE",
"B+	c #D4C6C6",
"C+	c #D7CECF",
"D+	c #DAD4D6",
"E+	c #D8CFD0",
"F+	c #A6A5B5",
"G+	c #7B75A1",
"H+	c #D1D0D6",
"I+	c #676A71",
"J+	c #999A9E",
"K+	c #A4A6A5",
"L+	c #666A6B",
"M+	c #6D6F7B",
"N+	c #9395AE",
"O+	c #9496BD",
"P+	c #8489B1",
"Q+	c #70769A",
"R+	c #626075",
"S+	c #797981",
"T+	c #AEB2B3",
"U+	c #7B8C7C",
"V+	c #7C8F71",
"W+	c #D3C7C7",
"X+	c #C3ABAB",
"Y+	c #A47D7E",
"Z+	c #D2BFC1",
"`+	c #DDD3D4",
" @	c #DCD0D2",
".@	c #D9CFCE",
"+@	c #D1C8C9",
"@@	c #676692",
"#@	c #858786",
"$@	c #878791",
"%@	c #A7A9B6",
"&@	c #5E626D",
"*@	c #888C97",
"=@	c #DBDDE9",
"-@	c #FDFFFE",
";@	c #BCBFEC",
">@	c #7073BA",
",@	c #7A7BCB",
"'@	c #7574BA",
")@	c #5C5E87",
"!@	c #767F88",
"~@	c #ABB5B6",
"{@	c #677865",
"]@	c #8CA182",
"^@	c #CBB7B6",
"/@	c #D4C4C5",
"(@	c #DBCCCF",
"_@	c #CFBFC0",
":@	c #D3C5C5",
"<@	c #D1C1C1",
"[@	c #C2BCC0",
"}@	c #59598B",
"|@	c #CFD0CA",
"1@	c #6B6C67",
"2@	c #ACADB2",
"3@	c #797B87",
"4@	c #727888",
"5@	c #BEC5D7",
"6@	c #E1ECF2",
"7@	c #8B93C2",
"8@	c #757EC3",
"9@	c #7C82D6",
"0@	c #8382DF",
"a@	c #787CBC",
"b@	c #5A647D",
"c@	c #989DA1",
"d@	c #939D95",
"e@	c #60775A",
"f@	c #D0C2C1",
"g@	c #C1A9A9",
"h@	c #C0A7AA",
"i@	c #E1D5D9",
"j@	c #F2F0F3",
"k@	c #EAE1E4",
"l@	c #CEBABC",
"m@	c #D6CBCF",
"n@	c #CFCAD0",
"o@	c #575891",
"p@	c #C2C0D8",
"q@	c #BABBB6",
"r@	c #757772",
"s@	c #ABACB0",
"t@	c #626578",
"u@	c #B2B6D3",
"v@	c #C8CEF2",
"w@	c #99A3D6",
"x@	c #7D88BE",
"y@	c #7F8EC7",
"z@	c #8F99DE",
"A@	c #949DEA",
"B@	c #9298EC",
"C@	c #97A2E4",
"D@	c #697699",
"E@	c #797A7F",
"F@	c #BAB8B9",
"G@	c #647263",
"H@	c #BDAEAB",
"I@	c #BEA5A8",
"J@	c #E4D9DD",
"K@	c #F1EFF2",
"L@	c #ECE7EB",
"M@	c #D6C6C9",
"N@	c #DAD0CF",
"O@	c #D7CED1",
"P@	c #7578AF",
"Q@	c #9390BD",
"R@	c #ACACAE",
"S@	c #898989",
"T@	c #A7A7AF",
"U@	c #676884",
"V@	c #A3A5D5",
"W@	c #9AA0DE",
"X@	c #6872B9",
"Y@	c #8A97DB",
"Z@	c #97A6E7",
"`@	c #A4B3F8",
" #	c #AAB6FE",
".#	c #ABB5F3",
"+#	c #A2B2E6",
"@#	c #8694BB",
"##	c #726F78",
"$#	c #C2B7BD",
"%#	c #7A8277",
"&#	c #D4CFCC",
"*#	c #F8F6FB",
"=#	c #D6CACC",
"-#	c #CDBBBB",
";#	c #DACED2",
">#	c #CCC1BF",
",#	c #A1AAC9",
"'#	c #575C94",
")#	c #A7A7A7",
"!#	c #8F8F91",
"~#	c #A5A4B2",
"{#	c #67678D",
"]#	c #7B7CBC",
"^#	c #7177C5",
"/#	c #8995E1",
"(#	c #98A7EA",
"_#	c #ACBCF7",
":#	c #B9C8FF",
"<#	c #C0CEFD",
"[#	c #C2CFF9",
"}#	c #B7C8F3",
"|#	c #9CAACD",
"1#	c #6F6C77",
"2#	c #C6B8C7",
"3#	c #7D827E",
"4#	c #CCC9C4",
"5#	c #E1D6DA",
"6#	c #F1ECF0",
"7#	c #D0BBC0",
"8#	c #DBD1D2",
"9#	c #D8D3D0",
"0#	c #DACED0",
"a#	c #D0C6C5",
"b#	c #EFF0F2",
"c#	c #C3D9E7",
"d#	c #485A8A",
"e#	c #BAC6E0",
"f#	c #B0B0AE",
"g#	c #868782",
"h#	c #B5B4BA",
"i#	c #5F5F7B",
"j#	c #7879B1",
"k#	c #7F86CC",
"l#	c #8D99E1",
"m#	c #A9B9F7",
"n#	c #BACCFC",
"o#	c #CADAFC",
"p#	c #D5E3FD",
"q#	c #D5E4FB",
"r#	c #CDDEFC",
"s#	c #97A5C0",
"t#	c #737278",
"u#	c #CCC2CD",
"v#	c #74777C",
"w#	c #B2AFAA",
"x#	c #E8DFE2",
"y#	c #E8E2E2",
"z#	c #CDBFBC",
"A#	c #D5D0CC",
"B#	c #D3D0CB",
"C#	c #D3CECB",
"D#	c #D2CFCA",
"E#	c #CEC6C3",
"F#	c #CECFD1",
"G#	c #DDEEF8",
"H#	c #717CB2",
"I#	c #6F71A4",
"J#	c #C1C2BD",
"K#	c #72736B",
"L#	c #C5C4BF",
"M#	c #72727E",
"N#	c #686B8E",
"O#	c #868CC6",
"P#	c #97A1E6",
"Q#	c #ADBBF8",
"R#	c #C4D2FF",
"S#	c #D8E7FE",
"T#	c #EEF7FF",
"U#	c #E9F3FF",
"V#	c #E1ECFE",
"W#	c #747C91",
"X#	c #92938D",
"Y#	c #C2BDC1",
"Z#	c #696A7F",
"`#	c #C4D0E0",
" $	c #DEE3E7",
".$	c #E2EBF2",
"+$	c #D8ECF7",
"@$	c #CEE1F0",
"#$	c #CCDFED",
"$$	c #CDE3F0",
"%$	c #D2E4F2",
"&$	c #CFE2F1",
"*$	c #D0E2F0",
"=$	c #D1E2F2",
"-$	c #D0DFFC",
";$	c #DCE6FF",
">$	c #C2C1FD",
",$	c #544D9A",
"'$	c #CECAE1",
")$	c #737369",
"!$	c #BABAB0",
"~$	c #A9ABAA",
"{$	c #54596D",
"]$	c #7D83B5",
"^$	c #9FA8ED",
"/$	c #B2BBFF",
"($	c #C6D1FF",
"_$	c #DAE1FE",
":$	c #F6F9FE",
"<$	c #FDFEFF",
"[$	c #A7A9C0",
"}$	c #5F636F",
"|$	c #CFD1C4",
"1$	c #959691",
"2$	c #51536C",
"3$	c #727CB1",
"4$	c #6E7CB9",
"5$	c #6F79B6",
"6$	c #707BB1",
"7$	c #7079B4",
"8$	c #7079BA",
"9$	c #6C7CBA",
"0$	c #6C7ABB",
"a$	c #6A7BC0",
"b$	c #687CB7",
"c$	c #6C80BB",
"d$	c #6976BC",
"e$	c #6E77C4",
"f$	c #363883",
"g$	c #5E618C",
"h$	c #A4A3A1",
"i$	c #7B7774",
"j$	c #DAD9D7",
"k$	c #93989C",
"l$	c #566177",
"m$	c #7E8CB3",
"n$	c #A5B1E1",
"o$	c #CAD1FD",
"p$	c #DFE0FC",
"q$	c #D5D3E1",
"r$	c #9996A9",
"s$	c #5F5F69",
"t$	c #C0C1C3",
"u$	c #C2C5BA",
"v$	c #636A63",
"w$	c #8A94A0",
"x$	c #959BBD",
"y$	c #9297BF",
"z$	c #9197BB",
"A$	c #9194B7",
"B$	c #9595B9",
"C$	c #9998BA",
"D$	c #9A9ABE",
"E$	c #9698BF",
"F$	c #9699C2",
"G$	c #9499BF",
"H$	c #929CBF",
"I$	c #929DBD",
"J$	c #929DB9",
"K$	c #9199BD",
"L$	c #9BA1C3",
"M$	c #989DBA",
"N$	c #858086",
"O$	c #878787",
"P$	c #E0E6E2",
"Q$	c #B2BCBB",
"R$	c #657479",
"S$	c #62707D",
"T$	c #6F7686",
"U$	c #787884",
"V$	c #6C6B71",
"W$	c #7B7C81",
"X$	c #D0D2D1",
"Y$	c #D8D7D2",
"Z$	c #71726D",
"`$	c #6D6C68",
" %	c #A49B9C",
".%	c #818181",
"+%	c #7D7D7D",
"@%	c #CECECE",
"#%	c #E8E8E8",
"$%	c #D4D8DB",
"%%	c #BDBEC0",
"&%	c #C6C6C8",
"*%	c #DEE0DF",
"=%	c #E6F0F1",
"-%	c #B7BDBD",
";%	c #676662",
">%	c #9A8F8D",
",%	c #D2B3AE",
"'%	c #652E27",
")%	c #702319",
"!%	c #753728",
"~%	c #CCB19E",
"{%	c #A0A0A0",
"]%	c #686868",
"^%	c #8C8C8C",
"/%	c #ACAEAB",
"(%	c #C0C0C0",
"_%	c #B8B8B8",
":%	c #A5A5A5",
"<%	c #787C7D",
"[%	c #6B6D6C",
"}%	c #746A68",
"|%	c #AA8483",
"1%	c #7C3835",
"2%	c #863228",
"3%	c #DD9A89",
"4%	c #C18270",
"5%	c #571F10",
"6%	c #C09D97",
"7%	c #878785",
"8%	c #8A8A8A",
"9%	c #8D8D8D",
"0%	c #969696",
"a%	c #C1BFC4",
"b%	c #CCBFB9",
"c%	c #6B3431",
"d%	c #7A1C1C",
"e%	c #E3807B",
"f%	c #F9B4A4",
"g%	c #FFD6C8",
"h%	c #CD928C",
"i%	c #5D181B",
"j%	c #C09E9D",
"k%	c #825349",
"l%	c #9A3F3A",
"m%	c #E1716F",
"n%	c #E4837D",
"o%	c #F19E98",
"p%	c #FFC7C6",
"q%	c #D49494",
"r%	c #5D1D1B",
"s%	c #C29F99",
"t%	c #AB9484",
"u%	c #5E140B",
"v%	c #C45452",
"w%	c #DA6667",
"x%	c #E7817D",
"y%	c #F9A4A1",
"z%	c #FFC9BF",
"A%	c #D7998E",
"B%	c #592015",
"C%	c #C2A3A0",
"D%	c #926059",
"E%	c #6E100E",
"F%	c #C45252",
"G%	c #D86763",
"H%	c #E47F75",
"I%	c #F79F93",
"J%	c #FECEBA",
"K%	c #CD9888",
"L%	c #5C231A",
"M%	c #C5A6A1",
"N%	c #95605A",
"O%	c #6C130D",
"P%	c #C55851",
"Q%	c #DB695F",
"R%	c #E48070",
"S%	c #F1A691",
"T%	c #FFD2BD",
"U%	c #C6867C",
"V%	c #6B352B",
"W%	c #916052",
"X%	c #6D130A",
"Y%	c #CA554B",
"Z%	c #DD685E",
"`%	c #E58074",
" &	c #FFADA1",
".&	c #EBA89F",
"+&	c #602118",
"@&	c #E1D1C4",
"#&	c #995E50",
"$&	c #750E07",
"%&	c #C4494B",
"&&	c #E47070",
"*&	c #EB8A84",
"=&	c #8B3E38",
"-&	c #825248",
";&	c #9C5B57",
">&	c #710C10",
",&	c #9C3A3B",
"'&	c #772120",
")&	c #6A3733",
"!&	c #E4D2CE",
"~&	c #B88B88",
"{&	c #83524B",
"]&	c #9B7369",
"^&	c #E8D9D6",
"                                                                        ",
"                  . + @ # $ % & * * $ $ = - & ; > , ' ) ! = ~ { ]       ",
"                ^ / ( _ : < [ } | 1 2 3 3 4 5 6 7 8 9 0 a b c d e       ",
"                f g h i j k l m n o p q h r s t u v w x y z A B         ",
"                C D E F G G H I J K L M N O P Q R S T I U V W X         ",
"                Y Z ` F H  ...+.@.#.$.%.&.*.=.-.%.;.>.,.'.q ).!.        ",
"              ~.{.].^./.(._.:.$.<.[.$.}.|.1.2.3.4.O 5.6.7.8.9.0.        ",
"              a.b.c.d.e.f.g.h.3.%.i.j.k.l.m.F n. .o.p.q.r.s.t.          ",
"              u.v.w.x.-.y.z.A.B.-.C.y.D.E.F.G.H.o.I.o.J.K.L.M.          ",
"              N.O.P.Q.R.S.T.U.V.&.W.X.Y. .Z.(.m.`. +.+4.++@+#+          ",
"            $+%+&+*+=+-+;+>+,+++[.'+)+x.!+~+{+]+~+^+:./+(+_+:+          ",
"        <+[+}+|+1+2+3+4+5+6+7+8+9++.0+-.a+b+c+d+(.e+_.f+g+h+i+          ",
"      j+k+l+m+n+o+p+q+r+s+t+u+v+w+x+y+9+z+A+%.B+C+D+..E+ .F+G+          ",
"    H+I+J+K+L+M+N+O+P+Q+R+S+T+U+V+W+X+Y+Z+`+ @I.H.F o.C+.@+@@@          ",
"    #@$@%@&@*@=@-@;@>@,@'@)@!@~@{@]@^@x+/@(@h._@:@B+<@_._.[@}@          ",
"  |@1@2@3@4@5@-@6@7@8@9@0@a@b@c@d@e@f@g@h@Z+++i@j@k@l@m@V n@o@p@        ",
"  q@r@s@t@u@v@w@x@y@z@A@B@C@D@E@F@G@H@I@B+J@K@L@N l@M@N@o.O@P@Q@        ",
"  R@S@T@U@V@W@X@Y@Z@`@ #.#+#@###$#%#&#*#r.V.=#-#Y.;#9+.@>#+@,#'#        ",
"  )#!#~#{#]#^#/#(#_#:#<#[#}#|#1#2#3#4#5#6#2.7#8#9#0# .a#m.b#c#d#e#      ",
"  f#g#h#i#j#k#l#m#n#o#p#q#r#s#t#u#v#w#<.x#y#z#A#B#C#&#D#E#F#G#H#I#      ",
"  J#K#L#M#N#O#P#Q#R#S#T#U#V#W#X#Y#Z#`# $.$+$@$#$$$%$&$*$=$-$;$>$,$'$    ",
"    )$!$~${$]$^$/$($_$:$<$[$}$|$1$2$3$4$5$6$7$8$9$0$a$b$c$9$d$e$f$g$    ",
"    h$i$j$k$l$m$n$o$p$q$r$s$t$u$v$w$x$y$z$A$B$C$D$E$F$G$H$I$J$K$L$M$    ",
"      N$O$P$Q$R$S$T$U$V$W$X$Y$Z$`$ %                                    ",
"        .%+%@%#%$%%%&%*%=%-%;%>%,%'%)%!%~%                              ",
"          {%]%^%/%(%_%:%<%[%}%|%1%2%3%4%5%6%                            ",
"              )#7%8%9%0%a%  b%c%d%e%f%g%h%i%j%                          ",
"                              k%l%m%n%o%p%q%r%s%                        ",
"                              t%u%v%w%x%y%z%A%B%C%                      ",
"                                D%E%F%G%H%I%J%K%L%M%                    ",
"                                  N%O%P%Q%R%S%T%U%V%                    ",
"                                    W%X%Y%Z%`% &.&+&@&                  ",
"                                      #&$&%&&&*&=&-&                    ",
"                                        ;&>&,&'&)&!&                    ",
"                                          ~&{&]&^&                      ",
"                                                                        "};
