#define zoom_in_mask_width 32
#define zoom_in_mask_height 32
#define zoom_in_mask_x_hot 8
#define zoom_in_mask_y_hot 8
static unsigned char zoom_in_mask_bits[] = {
   0xe0, 0x07, 0x00, 0x00, 0xf8, 0x1f, 0x00, 0x00, 0xfc, 0x3f, 0x00, 0x00,
   0x1e, 0x78, 0x00, 0x00, 0xce, 0x73, 0x00, 0x00, 0xc7, 0xe3, 0x00, 0x00,
   0xf7, 0xef, 0x00, 0x00, 0xf7, 0xef, 0x00, 0x00, 0xf7, 0xef, 0x00, 0x00,
   0xf7, 0xef, 0x00, 0x00, 0xc7, 0xe3, 0x00, 0x00, 0xce, 0x73, 0x00, 0x00,
   0x1e, 0xf8, 0x00, 0x00, 0xfc, 0xff, 0x01, 0x00, 0xf8, 0xff, 0x03, 0x00,
   0xe0, 0xf7, 0x07, 0x00, 0x00, 0xe0, 0x0f, 0x00, 0x00, 0xc0, 0x1f, 0x00,
   0x00, 0x80, 0x1f, 0x00, 0x00, 0x00, 0x0f, 0x00, 0x00, 0x00, 0x06, 0x00,
   0x00, 0x00, 0x00, 0x00, 0x00, 0x00, 0x00, 0x00, 0x00, 0x00, 0x00, 0x00,
   0x00, 0x00, 0x00, 0x00, 0x00, 0x00, 0x00, 0x00, 0x00, 0x00, 0x00, 0x00,
   0x00, 0x00, 0x00, 0x00, 0x00, 0x00, 0x00, 0x00, 0x00, 0x00, 0x00, 0x00,
   0x00, 0x00, 0x00, 0x00, 0x00, 0x00, 0x00, 0x00 };
