#define zoom_in_width 32
#define zoom_in_height 32
#define zoom_in_x_hot 8
#define zoom_in_y_hot 8
static unsigned char zoom_in_bits[] = {
   0xe0, 0x07, 0x00, 0x00, 0x18, 0x18, 0x00, 0x00, 0xe4, 0x27, 0x00, 0x00,
   0x12, 0x48, 0x00, 0x00, 0xca, 0x53, 0x00, 0x00, 0x45, 0xa2, 0x00, 0x00,
   0x75, 0xae, 0x00, 0x00, 0x15, 0xa8, 0x00, 0x00, 0x15, 0xa8, 0x00, 0x00,
   0x75, 0xae, 0x00, 0x00, 0x45, 0xa2, 0x00, 0x00, 0xca, 0x53, 0x00, 0x00,
   0x12, 0xc8, 0x00, 0x00, 0xe4, 0x27, 0x01, 0x00, 0x18, 0x18, 0x02, 0x00,
   0xe0, 0x17, 0x04, 0x00, 0x00, 0x20, 0x08, 0x00, 0x00, 0x40, 0x10, 0x00,
   0x00, 0x80, 0x10, 0x00, 0x00, 0x00, 0x09, 0x00, 0x00, 0x00, 0x06, 0x00,
   0x00, 0x00, 0x00, 0x00, 0x00, 0x00, 0x00, 0x00, 0x00, 0x00, 0x00, 0x00,
   0x00, 0x00, 0x00, 0x00, 0x00, 0x00, 0x00, 0x00, 0x00, 0x00, 0x00, 0x00,
   0x00, 0x00, 0x00, 0x00, 0x00, 0x00, 0x00, 0x00, 0x00, 0x00, 0x00, 0x00,
   0x00, 0x00, 0x00, 0x00, 0x00, 0x00, 0x00, 0x00 };
